<svg width="30" height="30" viewBox="0 0 30 30" fill="none" xmlns="http://www.w3.org/2000/svg">
<path fill-rule="evenodd" clip-rule="evenodd" d="M29.2055 5.16909C29.6505 6.34789 29.8867 7.59501 29.9035 8.85464C29.9964 10.439 29.9968 10.9571 30.0001 14.9675L30.0001 15.0233C30.0001 19.0864 29.9785 19.5936 29.9069 21.1936C29.8819 22.4393 29.647 23.6667 29.2088 24.8309C28.8225 25.825 28.2329 26.7278 27.4777 27.4817C26.7224 28.2357 25.8181 28.8243 24.8224 29.21C23.6569 29.6467 22.4254 29.8824 21.1807 29.9069C19.5897 30 19.0683 30 15.0001 30C10.9319 30 10.4238 29.9784 8.81946 29.9069C7.57229 29.8659 6.34127 29.6128 5.17939 29.1584C4.18327 28.7736 3.27852 28.1854 2.52295 27.4317C1.76738 26.678 1.17761 25.7752 0.791319 24.781C0.353178 23.6151 0.118281 22.3877 0.0932923 21.1437C0 19.5537 0 19.0348 0 14.9734C0 10.912 0.0216571 10.4047 0.0932923 8.80308C0.116821 7.56089 0.352897 6.33185 0.791319 5.16909C1.17696 4.17462 1.7663 3.27146 2.52161 2.51741C3.27693 1.76335 4.18159 1.175 5.17772 0.789999C6.34279 0.353368 7.5736 0.117176 8.81779 0.0914737C10.4088 0 10.9302 0 14.9984 0C19.0666 0 19.5747 0.019958 21.1774 0.0914737C22.4221 0.116989 23.6535 0.353183 24.8191 0.789999C25.8151 1.17527 26.7196 1.76371 27.4749 2.51774C28.2302 3.27176 28.8196 4.17477 29.2055 5.16909ZM7.2868 14.9651C7.2868 19.2128 10.7336 22.6538 14.9884 22.6538C17.031 22.6538 18.9899 21.8438 20.4343 20.4019C21.8786 18.9599 22.69 17.0043 22.69 14.9651C22.69 12.9259 21.8786 10.9702 20.4343 9.5283C18.9899 8.08637 17.031 7.27631 14.9884 7.27631C10.7336 7.27631 7.2868 10.7174 7.2868 14.9651ZM21.2007 6.99191C21.2007 7.98315 22.002 8.78479 22.9966 8.78479C23.9878 8.78479 24.7908 7.98315 24.7908 6.99191C24.7908 6.75657 24.7443 6.52354 24.6541 6.30612C24.5639 6.0887 24.4317 5.89114 24.265 5.72474C24.0983 5.55833 23.9004 5.42633 23.6827 5.33627C23.4649 5.24621 23.2315 5.19986 22.9957 5.19986C22.76 5.19986 22.5266 5.24621 22.3088 5.33627C22.091 5.42633 21.8931 5.55833 21.7264 5.72474C21.5598 5.89114 21.4275 6.0887 21.3373 6.30612C21.2471 6.52354 21.2007 6.75657 21.2007 6.99191ZM19.9914 14.9649C19.9914 17.7232 17.7515 19.9593 14.9885 19.9593C12.2256 19.9593 9.98575 17.7232 9.98575 14.9649C9.98575 12.2065 12.2256 9.97041 14.9885 9.97041C17.7515 9.97041 19.9914 12.2065 19.9914 14.9649Z" fill="#777777"/>
</svg>
