<svg width="30" height="30" viewBox="0 0 30 30" fill="none" xmlns="http://www.w3.org/2000/svg">
<path d="M25.5562 25.5658H21.1191V18.6032C21.1191 16.9429 21.0844 14.8092 18.7987 14.8092C16.485 14.8092 16.1325 16.6101 16.1325 18.4804V25.5648H11.6897V11.2487H15.9572V13.2015H16.0144C16.6106 12.0737 18.0609 10.8878 20.2247 10.8878C24.7256 10.8878 25.5609 13.8511 25.5609 17.7041V25.5648L25.5562 25.5658ZM6.67031 9.29221C6.3312 9.29233 5.99539 9.22556 5.68212 9.0957C5.36885 8.96585 5.08428 8.77546 4.8447 8.53546C4.60513 8.29546 4.41526 8.01055 4.28597 7.69706C4.15668 7.38357 4.09051 7.04765 4.09125 6.70854C4.09181 6.19814 4.2437 5.69936 4.52771 5.27527C4.81173 4.85118 5.21512 4.52082 5.68689 4.32597C6.15865 4.13111 6.6776 4.08052 7.17812 4.18057C7.67863 4.28062 8.13825 4.52683 8.49884 4.88807C8.85944 5.24931 9.10482 5.70935 9.20396 6.21004C9.30311 6.71072 9.25157 7.22956 9.05585 7.70095C8.86014 8.17235 8.52904 8.57512 8.10442 8.85836C7.6798 9.1416 7.18073 9.29258 6.67031 9.29221ZM8.89594 25.5658H4.44375V11.2496H8.89594V25.5658ZM27.7838 0H2.2125C0.990937 0 0 0.966532 0 2.16274V27.8373C0 29.0335 0.990937 30 2.2125 30H27.7791C28.9988 30 30 29.0335 30 27.8373V2.16274C30 0.966532 28.9988 0 27.7791 0H27.7838Z" fill="#777777"/>
</svg>
