<svg width="29" height="29" viewBox="0 0 29 29" fill="none" xmlns="http://www.w3.org/2000/svg">
<path d="M24.0422 0H4.955C2.21758 0 0 2.21758 0 4.955V24.0422C0 26.7797 2.21758 28.9972 4.955 28.9972H24.0422C26.7797 28.9972 28.9972 26.7797 28.9972 24.0422V4.955C29 2.21758 26.7797 0 24.0422 0ZM22.8588 12.6585C21.1555 12.6585 19.5905 12.0584 18.3656 11.0603V17.9619C18.3656 21.338 15.6281 24.0754 12.252 24.0754C8.87586 24.0754 6.13844 21.338 6.13844 17.9619C6.13844 14.5857 8.87586 11.8483 12.252 11.8483C12.5451 11.8483 12.8327 11.8677 13.1175 11.9091V15.3406C12.8603 15.2604 12.5368 15.2162 12.252 15.2162C10.7367 15.2162 9.50629 16.4438 9.50629 17.9619C9.50629 19.4771 10.734 20.7076 12.252 20.7076C13.7673 20.7076 14.9977 19.4799 14.9977 17.9619V4.92182H18.3656C18.3656 7.40208 20.3758 9.41505 22.8588 9.41505V12.6585Z" fill="#777777"/>
</svg>
