<svg width="16" height="15" viewBox="0 0 16 15" fill="none" xmlns="http://www.w3.org/2000/svg">
<g clip-path="url(#clip0)">
<path d="M11.1677 8.98824C10.9776 8.89522 10.0403 8.44512 9.86561 8.38361C9.69092 8.32135 9.56395 8.29059 9.43697 8.47663C9.31 8.66192 8.94446 9.08126 8.83288 9.20504C8.72206 9.32882 8.61048 9.34382 8.4204 9.2508C7.85867 9.0328 7.3402 8.72107 6.88823 8.3296C6.47138 7.95399 6.11401 7.52018 5.82779 7.04232C5.71697 6.85627 5.81625 6.75575 5.91167 6.66348C5.99709 6.58021 6.10252 6.44668 6.19717 6.33791C6.27557 6.244 6.33983 6.13968 6.38802 6.02809C6.41338 5.97681 6.42518 5.92017 6.42236 5.86331C6.41954 5.80645 6.40218 5.75118 6.37186 5.70252C6.32415 5.6095 5.94322 4.69505 5.7847 4.32297C5.63002 3.96139 5.47303 4.01015 5.35529 4.00415C5.24447 3.9989 5.1175 3.9974 4.99052 3.9974C4.89393 4.00002 4.79894 4.02211 4.71153 4.06226C4.62413 4.10241 4.54619 4.15976 4.48262 4.2307C4.26716 4.42959 4.09657 4.67005 3.9817 4.93676C3.86682 5.20347 3.8102 5.49057 3.81542 5.77979C3.87721 6.48062 4.14762 7.1486 4.59343 7.70171C5.41063 8.89601 6.53241 9.8626 7.84862 10.5066C8.20366 10.6553 8.56635 10.786 8.93523 10.8982C9.32411 11.0132 9.7352 11.0382 10.1357 10.9709C10.401 10.9185 10.6522 10.8131 10.8736 10.6612C11.0949 10.5094 11.2815 10.3145 11.4216 10.0887C11.5466 9.81113 11.5852 9.50382 11.5325 9.20504C11.4855 9.12702 11.3585 9.08126 11.1677 8.98824ZM13.0854 2.1775C11.7771 0.902484 10.0381 0.134359 8.19215 0.0161294C6.34617 -0.1021 4.51902 0.437623 3.05086 1.53482C1.5827 2.63201 0.573589 4.2119 0.21139 5.98036C-0.150809 7.74881 0.15859 9.58532 1.08198 11.148L0 15.0001L4.04321 13.9671C5.16148 14.5606 6.41448 14.8717 7.68779 14.8718H7.69087C9.19925 14.871 10.6736 14.4345 11.9276 13.6173C13.1815 12.8001 14.1589 11.6389 14.7362 10.2805C15.3135 8.92201 15.4648 7.42725 15.1709 5.98502C14.8771 4.54279 14.1514 3.21782 13.0854 2.17749V2.1775ZM11.0592 12.6715C10.0496 13.2884 8.88233 13.6157 7.69087 13.616H7.68779C6.55263 13.6159 5.43839 13.3182 4.46184 12.7541L4.23021 12.6205L1.83076 13.2342L2.47102 10.9537L2.32096 10.7196C1.65495 9.68427 1.31884 8.47965 1.35513 7.2581C1.39141 6.03655 1.79847 4.85291 2.52483 3.85687C3.25118 2.86083 4.26421 2.09711 5.43582 1.6623C6.60742 1.22748 7.88499 1.14109 9.10696 1.41405C10.3289 1.68702 11.4404 2.30707 12.3009 3.19581C13.1614 4.08455 13.7322 5.20206 13.9412 6.40703C14.1501 7.612 13.9878 8.85031 13.4749 9.96538C12.9619 11.0805 12.1212 12.0222 11.0592 12.6715Z" fill="#C5292C"/>
</g>
<defs>
<clipPath id="clip0">
<rect width="15.3171" height="15" fill="white"/>
</clipPath>
</defs>
</svg>
