<svg width="272" height="65" viewBox="0 0 272 65" fill="none" xmlns="http://www.w3.org/2000/svg">
<path d="M14.64 64.9C9.9 64.9 6.27 63.55 3.75 60.85C1.29 58.15 0.0600002 54.34 0.0600002 49.42V15.58C0.0600002 10.66 1.29 6.85 3.75 4.15C6.27 1.45 9.9 0.0999966 14.64 0.0999966C19.38 0.0999966 22.98 1.45 25.44 4.15C27.96 6.85 29.22 10.66 29.22 15.58V22.24H19.86V14.95C19.86 11.05 18.21 9.1 14.91 9.1C11.61 9.1 9.96 11.05 9.96 14.95V50.14C9.96 53.98 11.61 55.9 14.91 55.9C18.21 55.9 19.86 53.98 19.86 50.14V40.51H29.22V49.42C29.22 54.34 27.96 58.15 25.44 60.85C22.98 63.55 19.38 64.9 14.64 64.9ZM49.6289 64.9C44.7689 64.9 41.0489 63.52 38.4689 60.76C35.8889 58 34.5989 54.1 34.5989 49.06V15.94C34.5989 10.9 35.8889 7 38.4689 4.24C41.0489 1.48 44.7689 0.0999966 49.6289 0.0999966C54.4889 0.0999966 58.2089 1.48 60.7889 4.24C63.3689 7 64.6589 10.9 64.6589 15.94V49.06C64.6589 54.1 63.3689 58 60.7889 60.76C58.2089 63.52 54.4889 64.9 49.6289 64.9ZM49.6289 55.9C53.0489 55.9 54.7589 53.83 54.7589 49.69V15.31C54.7589 11.17 53.0489 9.1 49.6289 9.1C46.2089 9.1 44.4989 11.17 44.4989 15.31V49.69C44.4989 53.83 46.2089 55.9 49.6289 55.9ZM71.3541 0.999996H81.2541V55H97.5441V64H71.3541V0.999996ZM116.25 64.9C111.39 64.9 107.67 63.52 105.09 60.76C102.51 58 101.22 54.1 101.22 49.06V15.94C101.22 10.9 102.51 7 105.09 4.24C107.67 1.48 111.39 0.0999966 116.25 0.0999966C121.11 0.0999966 124.83 1.48 127.41 4.24C129.99 7 131.28 10.9 131.28 15.94V49.06C131.28 54.1 129.99 58 127.41 60.76C124.83 63.52 121.11 64.9 116.25 64.9ZM116.25 55.9C119.67 55.9 121.38 53.83 121.38 49.69V15.31C121.38 11.17 119.67 9.1 116.25 9.1C112.83 9.1 111.12 11.17 111.12 15.31V49.69C111.12 53.83 112.83 55.9 116.25 55.9ZM137.975 0.999996H152.105L158.405 46.09H158.585L164.885 0.999996H179.015V64H169.655V16.3H169.475L162.275 64H153.995L146.795 16.3H146.615V64H137.975V0.999996ZM186.403 0.999996H201.343C206.443 0.999996 210.163 2.2 212.503 4.6C214.843 6.94 216.013 10.57 216.013 15.49V18.01C216.013 21.25 215.473 23.89 214.393 25.93C213.373 27.97 211.783 29.44 209.623 30.34V30.52C214.543 32.2 217.003 36.58 217.003 43.66V49.06C217.003 53.92 215.713 57.64 213.133 60.22C210.613 62.74 206.893 64 201.973 64H186.403V0.999996ZM200.173 26.65C202.153 26.65 203.623 26.14 204.583 25.12C205.603 24.1 206.113 22.39 206.113 19.99V16.48C206.113 14.2 205.693 12.55 204.853 11.53C204.073 10.51 202.813 10 201.073 10H196.303V26.65H200.173ZM201.973 55C203.713 55 205.003 54.55 205.843 53.65C206.683 52.69 207.103 51.07 207.103 48.79V43.3C207.103 40.42 206.593 38.44 205.573 37.36C204.613 36.22 202.993 35.65 200.713 35.65H196.303V55H201.973ZM222.79 0.999996H232.69V64H222.79V0.999996ZM247.754 0.999996H261.164L271.424 64H261.524L259.724 51.49V51.67H248.474L246.674 64H237.494L247.754 0.999996ZM258.554 43.12L254.144 11.98H253.964L249.644 43.12H258.554Z" fill="white"/>
</svg>
