<svg width="402" height="55" viewBox="0 0 402 55" fill="none" xmlns="http://www.w3.org/2000/svg">
<path fill-rule="evenodd" clip-rule="evenodd" d="M402 0H0V55H402V0ZM32.6008 11.4951H24.0796V47H32.6008C35.3735 47 37.4531 46.2561 38.8395 44.7683C40.2259 43.2804 40.9191 41.0994 40.9191 38.2252V20.2699C40.9191 17.3957 40.2259 15.2146 38.8395 13.7268C37.4531 12.239 35.3735 11.4951 32.6008 11.4951ZM34.5789 41.1163C34.1055 41.6574 33.4123 41.9279 32.4993 41.9279H29.6589V16.5672H32.4993C33.4123 16.5672 34.1055 16.8377 34.5789 17.3787C35.0861 17.9198 35.3397 18.7989 35.3397 20.0163V38.4788C35.3397 39.6961 35.0861 40.5753 34.5789 41.1163ZM50.2645 11.4951H44.6851V47H50.2645V11.4951ZM55.5589 45.2248C56.9453 46.7464 58.991 47.5072 61.6962 47.5072C64.4351 47.5072 66.5147 46.7295 67.9349 45.174C69.3889 43.6186 70.1159 41.3868 70.1159 38.4788C70.1159 36.2471 69.6763 34.3028 68.7971 32.6459C67.918 30.989 66.3118 29.1461 63.9786 27.1172C62.1527 25.528 60.8846 24.1754 60.1745 23.0595C59.4982 21.9437 59.1601 20.7433 59.1601 19.4583C59.1601 17.1928 60.09 16.06 61.9498 16.06C62.8628 16.06 63.556 16.3474 64.0294 16.9223C64.5027 17.4633 64.7394 18.3425 64.7394 19.5598V21.3857H70.0145V19.9148C70.0145 17.0406 69.3213 14.8427 67.9349 13.321C66.5823 11.7656 64.5704 10.9879 61.8991 10.9879C59.1939 10.9879 57.1312 11.7656 55.7111 13.321C54.2909 14.8427 53.5808 17.0068 53.5808 19.8134C53.5808 21.876 54.0373 23.7358 54.9502 25.3927C55.8632 27.0158 57.4694 28.8418 59.7688 30.8706C61.5947 32.4599 62.8459 33.8294 63.5221 34.979C64.1984 36.0949 64.5366 37.3968 64.5366 38.8846C64.5366 40.1357 64.283 41.0487 63.7757 41.6235C63.3023 42.1646 62.5922 42.4351 61.6454 42.4351C59.718 42.4351 58.7543 41.2854 58.7543 38.986V36.5514H53.4793V38.5803C53.4793 41.4545 54.1725 43.6693 55.5589 45.2248ZM88.0748 11.4951H73.3149V47H78.8943V31.53H86.0967V26.4579H78.8943V16.5672H88.0748V11.4951ZM99.0179 11.4951H90.7504V47H96.3297V31.7836H98.2571C99.5421 31.7836 100.438 32.1048 100.945 32.7473C101.486 33.3898 101.757 34.5226 101.757 36.1456V42.638C101.757 43.9567 101.791 44.8697 101.858 45.3769C101.926 45.8841 102.061 46.4252 102.264 47H107.945C107.674 46.3913 107.505 45.7827 107.438 45.174C107.37 44.5316 107.336 43.7031 107.336 42.6887V36.45C107.336 34.3535 107.049 32.6797 106.474 31.4286C105.933 30.1774 104.986 29.349 103.634 28.9432V28.8418C106.068 27.8612 107.286 25.528 107.286 21.8422V19.6612C107.286 16.8884 106.626 14.8427 105.307 13.5239C103.989 12.1714 101.892 11.4951 99.0179 11.4951ZM100.844 25.8492C100.303 26.4241 99.4744 26.7115 98.3586 26.7115H96.3297V16.5672H98.8658C99.8464 16.5672 100.556 16.8546 100.996 17.4295C101.469 18.0043 101.706 18.9342 101.706 20.2191V22.9581C101.706 24.3107 101.419 25.2744 100.844 25.8492ZM113.135 45.2248C114.555 46.7464 116.618 47.5072 119.323 47.5072C122.028 47.5072 124.091 46.7464 125.511 45.2248C126.931 43.6693 127.641 41.4545 127.641 38.5803V11.4951H122.265V38.986C122.265 40.2033 122.011 41.0825 121.504 41.6235C121.03 42.1646 120.337 42.4351 119.424 42.4351C118.511 42.4351 117.801 42.1646 117.294 41.6235C116.82 41.0825 116.584 40.2033 116.584 38.986V11.4951H111.004V38.5803C111.004 41.4545 111.715 43.6693 113.135 45.2248ZM130.144 16.5672H135.977V47H141.556V16.5672H147.389V11.4951H130.144V16.5672ZM159.631 11.4951H152.074L146.291 47H151.465L152.479 40.0512H158.82V39.9497L159.834 47H165.413L159.631 11.4951ZM155.675 17.6831L158.16 35.2327H153.139L155.573 17.6831H155.675ZM184.765 11.4951H176.244V47H184.765C187.537 47 189.617 46.2561 191.003 44.7683C192.39 43.2804 193.083 41.0994 193.083 38.2252V20.2699C193.083 17.3957 192.39 15.2146 191.003 13.7268C189.617 12.239 187.537 11.4951 184.765 11.4951ZM186.743 41.1163C186.269 41.6574 185.576 41.9279 184.663 41.9279H181.823V16.5672H184.663C185.576 16.5672 186.269 16.8377 186.743 17.3787C187.25 17.9198 187.504 18.7989 187.504 20.0163V38.4788C187.504 39.6961 187.25 40.5753 186.743 41.1163ZM212.065 11.4951H196.849V47H212.065V41.9279H202.428V31.0228H210.087V25.9507H202.428V16.5672H212.065V11.4951ZM224.514 45.2248C225.901 46.7464 227.947 47.5072 230.652 47.5072C233.391 47.5072 235.47 46.7295 236.89 45.174C238.344 43.6186 239.071 41.3868 239.071 38.4788C239.071 36.2471 238.632 34.3028 237.753 32.6459C236.873 30.989 235.267 29.1461 232.934 27.1172C231.108 25.528 229.84 24.1754 229.13 23.0595C228.454 21.9437 228.116 20.7433 228.116 19.4583C228.116 17.1928 229.045 16.06 230.905 16.06C231.818 16.06 232.511 16.3474 232.985 16.9223C233.458 17.4633 233.695 18.3425 233.695 19.5598V21.3857H238.97V19.9148C238.97 17.0406 238.277 14.8427 236.89 13.321C235.538 11.7656 233.526 10.9879 230.855 10.9879C228.149 10.9879 226.087 11.7656 224.667 13.321C223.246 14.8427 222.536 17.0068 222.536 19.8134C222.536 21.876 222.993 23.7358 223.906 25.3927C224.819 27.0158 226.425 28.8418 228.724 30.8706C230.55 32.4599 231.801 33.8294 232.478 34.979C233.154 36.0949 233.492 37.3968 233.492 38.8846C233.492 40.1357 233.238 41.0487 232.731 41.6235C232.258 42.1646 231.548 42.4351 230.601 42.4351C228.674 42.4351 227.71 41.2854 227.71 38.986V36.5514H222.435V38.5803C222.435 41.4545 223.128 43.6693 224.514 45.2248ZM244.198 45.2248C245.618 46.7464 247.681 47.5072 250.386 47.5072C253.091 47.5072 255.154 46.7464 256.574 45.2248C257.994 43.6693 258.704 41.4545 258.704 38.5803V11.4951H253.328V38.986C253.328 40.2033 253.074 41.0825 252.567 41.6235C252.093 42.1646 251.4 42.4351 250.487 42.4351C249.574 42.4351 248.864 42.1646 248.357 41.6235C247.884 41.0825 247.647 40.2033 247.647 38.986V11.4951H242.068V38.5803C242.068 41.4545 242.778 43.6693 244.198 45.2248ZM271.917 45.2248C273.303 46.7464 275.349 47.5072 278.054 47.5072C280.793 47.5072 282.873 46.7295 284.293 45.174C285.747 43.6186 286.474 41.3868 286.474 38.4788C286.474 36.2471 286.034 34.3028 285.155 32.6459C284.276 30.989 282.67 29.1461 280.337 27.1172C278.511 25.528 277.243 24.1754 276.533 23.0595C275.856 21.9437 275.518 20.7433 275.518 19.4583C275.518 17.1928 276.448 16.06 278.308 16.06C279.221 16.06 279.914 16.3474 280.387 16.9223C280.861 17.4633 281.098 18.3425 281.098 19.5598V21.3857H286.373V19.9148C286.373 17.0406 285.679 14.8427 284.293 13.321C282.94 11.7656 280.928 10.9879 278.257 10.9879C275.552 10.9879 273.489 11.7656 272.069 13.321C270.649 14.8427 269.939 17.0068 269.939 19.8134C269.939 21.876 270.395 23.7358 271.308 25.3927C272.221 27.0158 273.828 28.8418 276.127 30.8706C277.953 32.4599 279.204 33.8294 279.88 34.979C280.557 36.0949 280.895 37.3968 280.895 38.8846C280.895 40.1357 280.641 41.0487 280.134 41.6235C279.66 42.1646 278.95 42.4351 278.004 42.4351C276.076 42.4351 275.112 41.2854 275.112 38.986V36.5514H269.837V38.5803C269.837 41.4545 270.531 43.6693 271.917 45.2248ZM301.393 11.4951H293.836L288.053 47H293.227L294.242 40.0512H300.582V39.9497L301.596 47H307.175L301.393 11.4951ZM297.437 17.6831L299.922 35.2327H294.901L297.336 17.6831H297.437ZM318.302 11.4951H309.882V47H318.657C321.43 47 323.526 46.2899 324.947 44.8697C326.401 43.4157 327.128 41.3192 327.128 38.5803V35.537C327.128 31.5469 325.741 29.0785 322.968 28.1317V28.0302C324.186 27.523 325.082 26.6946 325.657 25.5449C326.265 24.3952 326.57 22.9074 326.57 21.0814V19.6612C326.57 16.8884 325.91 14.8427 324.591 13.5239C323.273 12.1714 321.176 11.4951 318.302 11.4951ZM320.128 25.0884C319.587 25.6632 318.759 25.9507 317.643 25.9507H315.462V16.5672H318.15C319.13 16.5672 319.841 16.8546 320.28 17.4295C320.754 18.0043 320.99 18.9342 320.99 20.2191V22.1973C320.99 23.5498 320.703 24.5135 320.128 25.0884ZM320.838 41.167C320.365 41.6743 319.638 41.9279 318.657 41.9279H315.462V31.0228H317.947C319.232 31.0228 320.145 31.344 320.686 31.9865C321.261 32.5951 321.548 33.711 321.548 35.3341V38.4281C321.548 39.713 321.312 40.626 320.838 41.167ZM332.164 45.174C333.618 46.7295 335.715 47.5072 338.453 47.5072C341.192 47.5072 343.289 46.7295 344.743 45.174C346.197 43.6186 346.924 41.4207 346.924 38.5803V19.9148C346.924 17.0744 346.197 14.8765 344.743 13.321C343.289 11.7656 341.192 10.9879 338.453 10.9879C335.715 10.9879 333.618 11.7656 332.164 13.321C330.71 14.8765 329.983 17.0744 329.983 19.9148V38.5803C329.983 41.4207 330.71 43.6186 332.164 45.174ZM341.345 38.9353C341.345 41.2685 340.381 42.4351 338.453 42.4351C336.526 42.4351 335.562 41.2685 335.562 38.9353V19.5598C335.562 17.2266 336.526 16.06 338.453 16.06C340.381 16.06 341.345 17.2266 341.345 19.5598V38.9353ZM358.965 11.4951H350.697V47H356.276V31.7836H358.204C359.489 31.7836 360.385 32.1048 360.892 32.7473C361.433 33.3898 361.704 34.5226 361.704 36.1456V42.638C361.704 43.9567 361.737 44.8697 361.805 45.3769C361.873 45.8841 362.008 46.4252 362.211 47H367.892C367.621 46.3913 367.452 45.7827 367.384 45.174C367.317 44.5316 367.283 43.7031 367.283 42.6887V36.45C367.283 34.3535 366.996 32.6797 366.421 31.4286C365.88 30.1774 364.933 29.349 363.58 28.9432V28.8418C366.015 27.8612 367.232 25.528 367.232 21.8422V19.6612C367.232 16.8884 366.573 14.8427 365.254 13.5239C363.935 12.1714 361.839 11.4951 358.965 11.4951ZM360.791 25.8492C360.25 26.4241 359.421 26.7115 358.305 26.7115H356.276V16.5672H358.813C359.793 16.5672 360.503 16.8546 360.943 17.4295C361.416 18.0043 361.653 18.9342 361.653 20.2191V22.9581C361.653 24.3107 361.366 25.2744 360.791 25.8492Z" fill="white"/>
</svg>
