<svg width="26" height="25" viewBox="0 0 26 25" fill="none" xmlns="http://www.w3.org/2000/svg">
<path d="M24.8557 0H0.355713V24.58H24.8557V16.47C24.9557 16.31 25.0057 16.12 25.0057 15.93C25.0157 15.74 24.9657 15.55 24.8557 15.39" fill="url(#paint0_radial)"/>
<path d="M2.5657 10.64L2.0957 9.49002L1.6257 10.64H2.5657ZM12.9457 10.18C12.8357 10.23 12.7257 10.25 12.6057 10.24H11.7657V9.60002H12.6157C12.7257 9.59002 12.8357 9.61002 12.9457 9.65002C13.0457 9.70002 13.0957 9.80002 13.0957 9.91002C13.0957 10.02 13.0357 10.12 12.9457 10.18ZM18.9157 10.64L18.4357 9.49002L17.9657 10.64H18.9157ZM7.7957 11.88H7.0857V9.63002L6.0857 11.89H5.4857L4.4857 9.63002V11.89H3.0857L2.8257 11.25H1.3857L1.1157 11.89H0.365703L1.5957 9.00002H2.6157L3.7857 11.73V9.00002H4.9057L5.8057 10.95L6.6457 9.00002H7.7957V11.88ZM10.6057 11.88H8.3057V9.00002H10.6057V9.60002H8.9957V10.12H10.5657V10.71H8.9957V11.29H10.6057V11.88ZM13.8457 9.78002C13.8557 10.11 13.6657 10.42 13.3557 10.55C13.4857 10.6 13.6057 10.68 13.6957 10.79C13.7957 10.95 13.8357 11.13 13.8057 11.32V11.89H13.1057V11.53C13.1357 11.34 13.0957 11.14 12.9957 10.97C12.8557 10.86 12.6757 10.82 12.4957 10.85H11.7457V11.9H11.0557V9.00002H12.6457C12.9357 8.97002 13.2157 9.02002 13.4757 9.14002C13.7257 9.27002 13.8657 9.52002 13.8457 9.78002ZM14.9457 11.88H14.2457V9.00002H14.9457V11.88ZM23.0957 11.88H22.1157L20.8157 9.72002V11.88H19.4157L19.1457 11.24H17.7157L17.4557 11.88H16.6557C15.9857 11.97 15.3757 11.5 15.2857 10.84C15.2657 10.72 15.2757 10.59 15.2957 10.47C15.2657 10.06 15.3957 9.65002 15.6657 9.34002C15.9557 9.09002 16.3357 8.97002 16.7157 9.00002H17.3857V9.62002H16.7357C16.5457 9.60002 16.3457 9.66002 16.2057 9.79002C16.0557 9.98002 15.9857 10.21 16.0057 10.44C15.9857 10.68 16.0557 10.92 16.1957 11.12C16.3257 11.23 16.5057 11.28 16.6757 11.27H16.9857L17.9357 9.00002H18.9657L20.1357 11.73V9.00002H21.1857L22.3957 11.01V9.00002H23.1057L23.0957 11.88ZM0.355703 12.45H1.5357L1.7957 11.81H2.3857L2.6457 12.45H4.9657V11.96L5.1757 12.45H6.3757L6.5857 11.95V12.45H12.3357V11.4H12.4457C12.5257 11.4 12.5457 11.41 12.5457 11.54V12.45H15.5257V12.21C15.8657 12.38 16.2457 12.46 16.6257 12.45H17.8757L18.1457 11.81H18.7357L18.9957 12.45H21.4057V11.84L21.7757 12.45H23.7057V8.43002H21.7957V8.91002L21.5257 8.43002H19.5657V8.91002L19.3157 8.43002H16.6657C16.2657 8.41002 15.8757 8.49002 15.5157 8.66002V8.43002H13.6857V8.66002C13.4657 8.49002 13.1857 8.40002 12.9057 8.43002H6.2257L5.7757 9.47002L5.3157 8.43002H3.2057V8.91002L2.9757 8.43002H1.1757L0.345703 10.34L0.355703 12.45Z" fill="white"/>
<path d="M24.8556 14.57H23.5956C23.4956 14.56 23.4056 14.58 23.3156 14.62C23.2456 14.67 23.2056 14.74 23.2156 14.83C23.2156 14.93 23.2756 15.02 23.3656 15.04C23.4556 15.07 23.5456 15.08 23.6256 15.07L23.9956 15.08C24.2756 15.05 24.5556 15.14 24.7756 15.31C24.7956 15.33 24.8256 15.35 24.8356 15.38L24.8556 14.57ZM24.8556 16.4699C24.6256 16.7399 24.2756 16.88 23.9256 16.84H22.5956V16.2199H23.9156C24.0156 16.2299 24.1156 16.21 24.1956 16.15C24.2456 16.1 24.2756 16.03 24.2756 15.96C24.2756 15.89 24.2456 15.82 24.1956 15.77C24.1256 15.72 24.0356 15.7 23.9556 15.71C23.3056 15.69 22.5056 15.73 22.5056 14.82C22.5056 14.4 22.7656 13.96 23.4956 13.96H24.8656V13.39H23.5956C23.2856 13.37 22.9856 13.46 22.7356 13.62V13.39H20.8556C20.5656 13.37 20.2756 13.46 20.0356 13.62V13.39H16.6656V13.62C16.3856 13.46 16.0656 13.38 15.7356 13.39H13.5156V13.62C13.2256 13.44 12.8856 13.36 12.5456 13.39H10.0456L9.47559 14L8.94559 13.39H5.22559V17.41H8.86559L9.45559 16.79L10.0056 17.41H12.2456V16.4599H12.4656C12.7956 16.4799 13.1156 16.43 13.4256 16.32V17.41H15.2756V16.36H15.3656C15.4756 16.36 15.4856 16.36 15.4856 16.48V17.41H21.1056C21.4356 17.42 21.7656 17.33 22.0456 17.15V17.41H23.8256C24.1756 17.42 24.5156 17.36 24.8356 17.23L24.8556 16.4699ZM22.1056 15.32C22.2556 15.49 22.3356 15.71 22.3156 15.93C22.3156 16.55 21.9256 16.84 21.2356 16.84H19.8956V16.2199H21.2356C21.3356 16.2299 21.4356 16.21 21.5156 16.15C21.5656 16.1 21.5956 16.03 21.5956 15.96C21.5956 15.89 21.5656 15.82 21.5156 15.77C21.4456 15.72 21.3556 15.7 21.2756 15.71C20.6356 15.69 19.8256 15.73 19.8256 14.82C19.8256 14.4 20.0856 13.96 20.8056 13.96H22.1856V14.57H20.9256C20.8256 14.56 20.7356 14.58 20.6456 14.62C20.5356 14.7 20.5056 14.85 20.5856 14.96C20.6156 15 20.6456 15.03 20.6956 15.05C20.7856 15.08 20.8756 15.09 20.9656 15.08L21.3356 15.09C21.6056 15.06 21.8856 15.15 22.1056 15.32ZM15.8956 15.14C15.7856 15.19 15.6756 15.21 15.5556 15.2H14.7156V14.55H15.5656C15.6756 14.54 15.7956 14.56 15.8956 14.6C15.9856 14.65 16.0456 14.75 16.0356 14.86C16.0456 14.98 15.9856 15.08 15.8956 15.14ZM16.3156 15.5C16.4456 15.55 16.5656 15.63 16.6556 15.74C16.7456 15.9 16.7856 16.08 16.7656 16.27V16.84H16.0756V16.48C16.0756 16.31 16.0956 16.05 15.9656 15.92C15.8256 15.81 15.6356 15.76 15.4556 15.79H14.7156V16.84H14.0256V13.96H15.6156C15.8956 13.94 16.1856 13.98 16.4456 14.1C16.6756 14.23 16.8156 14.48 16.7956 14.74C16.8056 15.07 16.6156 15.37 16.3156 15.5ZM17.1756 13.96H19.4756V14.56H17.8656V15.08H19.4356V15.67H17.8656V16.24H19.4756V16.84H17.1756V13.96ZM12.5356 15.29H11.6456V14.56H12.5456C12.7956 14.56 12.9656 14.66 12.9656 14.91C12.9656 15.16 12.7956 15.29 12.5356 15.29ZM10.9556 16.58L9.89559 15.41L10.9556 14.27V16.58ZM8.22559 16.24H6.53559V15.67H8.04559V15.08H6.53559V14.56H8.26559L9.01559 15.4L8.22559 16.24ZM13.7056 14.91C13.7056 15.71 13.1056 15.88 12.5056 15.88H11.6456V16.85H10.3056L9.45559 15.89L8.57559 16.84H5.84559V13.96H8.61559L9.46559 14.91L10.3456 13.96H12.5456C13.0856 13.96 13.7056 14.11 13.7056 14.91Z" fill="white"/>
<defs>
<radialGradient id="paint0_radial" cx="0" cy="0" r="1" gradientUnits="userSpaceOnUse" gradientTransform="translate(4.62918 83.4072) scale(22.9992 22.986)">
<stop stop-color="#9DD5F6"/>
<stop offset="0.071" stop-color="#98D3F5"/>
<stop offset="0.157" stop-color="#89CEF3"/>
<stop offset="0.252" stop-color="#70C6EF"/>
<stop offset="0.351" stop-color="#4EBBEA"/>
<stop offset="0.455" stop-color="#23ADE3"/>
<stop offset="0.5" stop-color="#0DA6E0"/>
<stop offset="1" stop-color="#2E77BC"/>
</radialGradient>
</defs>
</svg>
