<svg width="57" height="15" viewBox="0 0 57 15" fill="none" xmlns="http://www.w3.org/2000/svg">
<path d="M11.3084 14.5315C15.3584 14.5615 18.7184 11.3815 18.8984 7.3315C18.8484 3.2315 15.4884 -0.0485 11.3884 0.00149996C11.3584 0.00149996 11.3284 0.00149996 11.2984 0.00149996H7.88836C3.93836 -0.0785 0.658359 3.0515 0.568359 7.0115C0.568359 7.1215 0.568359 7.2315 0.568359 7.3415C0.608359 11.3515 3.88836 14.5715 7.88836 14.5415H11.3084V14.5315Z" fill="#005297"/>
<path d="M9.4183 11.1916V3.33157C11.5883 4.16157 12.6783 6.60157 11.8483 8.77157C11.4183 9.88157 10.5383 10.7616 9.4183 11.1916ZM3.6983 7.26157C3.6983 5.52157 4.7683 3.96157 6.3983 3.33157V11.1916C4.7683 10.5616 3.6983 9.00157 3.6983 7.26157ZM7.9083 0.611572C4.2383 0.611572 1.2583 3.59157 1.2583 7.26157C1.2583 10.9316 4.2383 13.9116 7.9083 13.9116C11.5783 13.9116 14.5583 10.9316 14.5583 7.26157C14.5583 3.59157 11.5783 0.611572 7.9083 0.611572Z" fill="white"/>
<path d="M22.1084 9.07151C22.1084 9.66151 22.5284 9.73151 22.8984 9.73151C24.0684 9.77151 25.0584 8.86151 25.1084 7.68151C25.1084 7.57151 25.1084 7.4615 25.0984 7.34151C25.1884 6.07151 24.2284 4.9715 22.9684 4.8815C22.8784 4.8715 22.7984 4.8715 22.7084 4.8815C22.3984 4.8815 22.2484 4.90151 22.1084 4.91151V9.07151ZM21.3584 5.49151C21.3584 4.80151 20.9984 4.85151 20.6584 4.84151V4.64151C20.9584 4.65151 21.2584 4.6515 21.5584 4.6515C21.8784 4.6515 22.3184 4.64151 22.8784 4.64151C24.4084 4.49151 25.7684 5.60151 25.9184 7.13151C25.9284 7.1915 25.9284 7.25151 25.9284 7.31151C25.9284 8.07151 25.4884 9.97151 22.7784 9.97151C22.3884 9.97151 22.0284 9.9515 21.6684 9.9515C21.3284 9.9515 20.9884 9.9615 20.6484 9.97151V9.77151C21.1084 9.72151 21.3284 9.71151 21.3484 9.19151L21.3584 5.49151Z" fill="black"/>
<path d="M27.0182 5.30151C26.8082 5.29151 26.6482 5.11151 26.6582 4.91151C26.6682 4.72151 26.8182 4.56151 27.0182 4.55151C27.2182 4.55151 27.3882 4.71151 27.3882 4.92151C27.3882 5.13151 27.2282 5.30151 27.0182 5.30151ZM26.1982 9.77151H26.3482C26.5582 9.77151 26.7182 9.77151 26.7182 9.52151V7.45151C26.7182 7.11151 26.6082 7.07151 26.3182 6.92151V6.79151C26.6782 6.68151 27.1082 6.54151 27.1382 6.52151C27.1782 6.49151 27.2282 6.48151 27.2782 6.48151C27.3182 6.48151 27.3282 6.53151 27.3282 6.59151V9.52151C27.3282 9.77151 27.4982 9.77151 27.7082 9.77151H27.8382V9.97151C27.5782 9.97151 27.3082 9.95151 27.0382 9.95151C26.7682 9.95151 26.4882 9.96151 26.2082 9.97151L26.1982 9.77151Z" fill="black"/>
<path d="M28.5584 7.49145C28.5584 7.21145 28.4784 7.13145 28.1184 6.99145V6.85145C28.4584 6.75145 28.7984 6.62145 29.1284 6.48145C29.1484 6.48145 29.1684 6.50145 29.1684 6.56145V7.06145C29.5384 6.73145 29.9984 6.53145 30.4884 6.49145C31.1384 6.49145 31.3684 6.96145 31.3684 7.56145V9.53145C31.3684 9.78145 31.5384 9.78145 31.7484 9.78145H31.8884V9.98145C31.6184 9.98145 31.3484 9.96145 31.0784 9.96145C30.8084 9.96145 30.5284 9.97145 30.2584 9.98145V9.78145H30.3984C30.6084 9.78145 30.7684 9.78145 30.7684 9.53145V7.55145C30.7684 7.11145 30.4984 6.90145 30.0684 6.90145C29.7484 6.95145 29.4484 7.08145 29.1784 7.27145V9.53145C29.1784 9.78145 29.3484 9.78145 29.5584 9.78145H29.6984V9.98145C29.4284 9.98145 29.1584 9.96145 28.8884 9.96145C28.6184 9.96145 28.3384 9.97145 28.0684 9.98145V9.78145H28.2084C28.4184 9.78145 28.5784 9.78145 28.5784 9.53145L28.5584 7.49145Z" fill="black"/>
<path d="M33.8284 7.62149C34.0184 7.62149 34.0384 7.52149 34.0384 7.43149C34.0684 7.07149 33.7984 6.76149 33.4484 6.73149C33.4284 6.73149 33.3984 6.73149 33.3784 6.73149C32.9084 6.73149 32.5884 7.07149 32.4984 7.62149H33.8284ZM32.4684 7.86149C32.4484 8.01149 32.4484 8.16149 32.4684 8.30149C32.4384 8.97149 32.9284 9.54149 33.5884 9.62149C33.9884 9.60149 34.3584 9.41149 34.6184 9.11149L34.7284 9.22149C34.4284 9.72149 33.8984 10.0415 33.3184 10.0815C32.4684 10.0415 31.8184 9.32149 31.8584 8.48149C31.8584 8.46149 31.8584 8.44149 31.8584 8.42149C31.8584 6.92149 32.8684 6.48149 33.3984 6.48149C34.0684 6.44149 34.6484 6.94149 34.6884 7.61149C34.6884 7.63149 34.6884 7.66149 34.6884 7.68149C34.6884 7.73149 34.6884 7.77149 34.6784 7.82149L34.6084 7.87149L32.4684 7.86149Z" fill="black"/>
<path d="M34.8684 9.77134H35.0784C35.2884 9.77134 35.4484 9.77134 35.4484 9.52134V7.37134C35.4484 7.13134 35.1684 7.09134 35.0484 7.03134V6.91134C35.6084 6.67134 35.9084 6.47134 35.9784 6.47134C36.0184 6.47134 36.0484 6.49134 36.0484 6.57134V7.26134H36.0684C36.2584 6.96134 36.5784 6.47134 37.0484 6.47134C37.2784 6.46134 37.4684 6.64134 37.4784 6.87134C37.4884 7.07134 37.3284 7.25134 37.1284 7.26134H37.1184C36.8784 7.26134 36.8784 7.08134 36.6184 7.08134C36.2984 7.12134 36.0684 7.39134 36.0584 7.71134V9.51134C36.0584 9.76134 36.2084 9.76134 36.4284 9.76134H36.8584V9.96134C36.4384 9.95134 36.1184 9.94134 35.7884 9.94134C35.4784 9.94134 35.1584 9.95134 34.8784 9.96134L34.8684 9.77134Z" fill="black"/>
<path d="M37.8085 8.91153C37.8485 9.42153 38.2585 9.82153 38.7685 9.84153C39.0585 9.88153 39.3385 9.68153 39.3785 9.39153C39.3785 9.36153 39.3885 9.33153 39.3885 9.30153C39.3885 8.40153 37.7285 8.69153 37.7285 7.46153C37.7585 6.88153 38.2585 6.44153 38.8385 6.48153C38.8585 6.48153 38.8885 6.48153 38.9085 6.49153C39.2085 6.50153 39.5085 6.57153 39.7785 6.71153L39.8285 7.49153H39.6485C39.6385 7.06153 39.2685 6.72153 38.8385 6.73153C38.8285 6.73153 38.8185 6.73153 38.8185 6.73153C38.5285 6.69153 38.2585 6.90153 38.2185 7.20153C38.2185 7.21153 38.2185 7.22153 38.2185 7.23153C38.2185 8.12153 39.9885 7.85153 39.9885 9.05153C39.9885 9.55153 39.5885 10.0915 38.6785 10.0915C38.3485 10.0815 38.0285 9.99153 37.7485 9.83153L37.6685 8.94153L37.8085 8.91153Z" fill="black"/>
<path d="M46.8984 6.02154H46.7083C46.6083 5.22154 45.8783 4.66154 45.0783 4.77154C45.0783 4.77154 45.0783 4.77154 45.0683 4.77154C43.8683 4.77154 42.8984 5.75154 42.8984 6.96154C42.8984 7.04154 42.8983 7.12154 42.9083 7.20154C42.8183 8.56154 43.8283 9.74154 45.1883 9.85154C45.9583 9.85154 46.6083 9.29154 46.7283 8.53154L46.8984 8.58154L46.7283 9.69154C46.1983 9.94154 45.6283 10.0815 45.0383 10.1015C43.5383 10.2115 42.2383 9.09154 42.1283 7.59154C42.1183 7.47154 42.1183 7.35154 42.1283 7.22154C42.1883 5.68154 43.4883 4.48154 45.0183 4.53154C45.6383 4.56154 46.2483 4.70154 46.8183 4.94154L46.8984 6.02154Z" fill="black"/>
<path d="M47.1782 9.77159H47.3182C47.5282 9.77159 47.6882 9.77159 47.6882 9.52159V5.26159C47.6882 4.76159 47.5782 4.75159 47.2882 4.66159V4.54159C47.5582 4.45159 47.8182 4.34159 48.0782 4.21159C48.1282 4.18159 48.1882 4.15159 48.2482 4.13159C48.2982 4.13159 48.3082 4.18159 48.3082 4.24159V9.51159C48.3082 9.76159 48.4782 9.76159 48.6882 9.76159H48.8182V9.96159C48.5582 9.96159 48.2882 9.94159 48.0182 9.94159C47.7482 9.94159 47.4682 9.95159 47.1882 9.96159L47.1782 9.77159Z" fill="black"/>
<path d="M52.0783 9.55155C52.0783 9.69155 52.1583 9.69155 52.2883 9.69155C52.3783 9.69155 52.4983 9.68155 52.5983 9.68155V9.84155C52.2283 9.89155 51.8583 9.97155 51.4983 10.0816L51.4583 10.0616V9.44155C51.1083 9.82155 50.6183 10.0416 50.1083 10.0816C49.6583 10.0916 49.2783 9.73155 49.2683 9.28155C49.2683 9.25155 49.2683 9.21155 49.2683 9.18155V7.22155C49.2683 7.02155 49.2383 6.83155 48.8083 6.79155V6.65155C49.0783 6.64155 49.6983 6.60155 49.7883 6.60155C49.8683 6.60155 49.8683 6.65155 49.8683 6.82155V8.79155C49.8683 9.02155 49.8683 9.68155 50.5283 9.68155C50.8783 9.62155 51.1983 9.46155 51.4483 9.22155V7.15155C51.4483 7.00155 51.0783 6.91155 50.8083 6.84155V6.70155C51.4983 6.65155 51.9183 6.59155 51.9983 6.59155C52.0783 6.59155 52.0583 6.64155 52.0583 6.73155L52.0783 9.55155Z" fill="black"/>
<path d="M53.5984 9.11159C53.6184 9.53159 53.9584 9.87159 54.3884 9.89159C55.2084 9.89159 55.5484 9.09159 55.5484 8.41159C55.5884 7.67159 55.0584 7.02159 54.3284 6.90159C54.0484 6.93159 53.7984 7.06159 53.5984 7.26159V9.11159ZM53.5984 7.03159C53.9084 6.72159 54.3084 6.53159 54.7384 6.48159C55.5584 6.51159 56.1984 7.21159 56.1584 8.03159C56.1584 8.05159 56.1584 8.07159 56.1584 8.08159C56.1984 9.13159 55.3884 10.0216 54.3284 10.0816C53.9584 10.0816 53.5884 9.99159 53.2684 9.81159L53.0384 9.98159L52.8784 9.90159C52.9484 9.45159 52.9884 9.00159 52.9884 8.54159V5.26159C52.9884 4.76159 52.8784 4.75159 52.5884 4.66159V4.54159C52.8584 4.45159 53.1184 4.34159 53.3784 4.21159C53.4284 4.18159 53.4884 4.15159 53.5484 4.13159C53.5984 4.13159 53.6084 4.18159 53.6084 4.24159L53.5984 7.03159Z" fill="black"/>
<path d="M56.0783 6.07154H56.1383C56.1983 6.07154 56.2283 6.02154 56.2283 5.95154C56.2283 5.88154 56.1783 5.84154 56.1283 5.84154H56.0683L56.0783 6.07154ZM55.9083 6.33154V6.31154C55.9683 6.30154 55.9783 6.30154 55.9783 6.27154V5.90154C55.9783 5.85154 55.9683 5.83154 55.9083 5.83154V5.81154H56.1583C56.2483 5.81154 56.3283 5.85154 56.3283 5.94154C56.3283 6.01154 56.2783 6.07154 56.2083 6.09154L56.2883 6.20154C56.3183 6.24154 56.3583 6.28154 56.3983 6.32154V6.34154H56.2983C56.2483 6.34154 56.2083 6.24154 56.1183 6.11154H56.0683V6.27154C56.0683 6.30154 56.0783 6.30154 56.1383 6.31154V6.33154H55.9083ZM56.1583 6.47154C56.3783 6.48154 56.5583 6.30154 56.5683 6.08154C56.5783 5.86154 56.3983 5.68154 56.1783 5.67154C55.9583 5.66154 55.7783 5.84154 55.7683 6.06154V6.07154C55.7583 6.29154 55.9383 6.47154 56.1583 6.47154ZM56.1583 5.58154C56.4283 5.58154 56.6483 5.80154 56.6483 6.07154C56.6483 6.34154 56.4283 6.56154 56.1583 6.56154C55.8883 6.56154 55.6683 6.34154 55.6683 6.07154C55.6583 5.80154 55.8783 5.58154 56.1383 5.58154C56.1383 5.58154 56.1483 5.58154 56.1583 5.58154Z" fill="black"/>
</svg>
