<svg width="56" height="20" viewBox="0 0 56 20" fill="none" xmlns="http://www.w3.org/2000/svg">
<path fill-rule="evenodd" clip-rule="evenodd" d="M44.9815 7.41998L45.0015 11.2C45.0115 11.45 45.0615 11.69 45.1515 11.92C45.6615 13.04 47.4315 12.94 48.4615 12.27L48.0015 11.32C47.6415 11.55 47.2015 11.64 46.7815 11.58C46.3515 11.45 46.3915 10.95 46.3915 10.46V7.38998L49.2515 7.39998L51.5515 12.64C51.4415 13.1 51.2515 13.53 50.9815 13.92C50.1915 15.04 49.4515 14.56 48.8115 14.42L48.5015 15.55C49.5615 16.05 50.8215 15.86 51.6915 15.07C52.3215 14.26 52.7915 13.34 53.0815 12.36L55.2815 6.26998H53.7915L52.2415 10.95C52.0815 10.78 50.8915 7.77998 50.6715 7.26998C50.4215 6.58998 49.7415 6.16998 49.0215 6.26998C48.1515 6.25998 47.2815 6.26998 46.3915 6.26998V4.37998C45.9115 4.49998 45.4415 4.64998 44.9815 4.82998V6.23998L43.8515 6.25998L43.8615 7.37998L44.9815 7.41998ZM28.9315 6.26998L28.9515 4.86998C29.0115 4.20998 29.4015 3.61998 30.0015 3.31998C30.7015 3.03998 31.4915 3.06998 32.1815 3.38998L31.9115 4.49998C30.3115 4.14998 30.3215 4.44998 30.3215 6.26998H32.0615L31.6115 7.37998L30.3215 7.38998V12.62C29.8615 12.66 29.3915 12.66 28.9315 12.6V7.39998L28.2315 7.37998L27.8015 6.27998L28.9315 6.26998ZM38.3215 9.60998C38.4115 13.35 42.4715 13.14 43.5615 12.15C43.4615 11.82 43.3215 11.5 43.1515 11.2C42.4315 11.65 41.5515 11.72 40.7715 11.4C39.3615 10.71 39.4615 8.08998 40.8915 7.42998C41.5015 7.18998 42.1815 7.18998 42.7815 7.44998C42.9815 7.54998 43.1315 7.64998 43.3015 7.71998V6.50998C42.5315 6.11998 41.6515 5.99998 40.8115 6.18998C39.2615 6.58998 38.2215 8.02998 38.3215 9.60998ZM23.5115 8.77998C23.6115 7.92998 23.9315 7.22998 24.8415 7.20998C25.7115 7.18998 26.1315 7.91998 26.1715 8.78998L23.5115 8.77998ZM27.4115 12.15L27.0215 11.22C26.6715 11.37 26.3115 11.49 25.9415 11.59C24.9615 11.9 23.9215 11.35 23.6215 10.38C23.5615 10.2 23.5315 9.99998 23.5315 9.79998H27.6015C27.6015 8.37998 27.3515 6.73998 25.7615 6.23998C25.0215 6.00998 24.2115 6.07998 23.5215 6.44998C21.3215 7.76998 21.4315 12.8 25.2915 12.75C26.0515 12.78 26.7915 12.57 27.4115 12.15ZM33.5015 8.79998C33.5715 7.93998 33.9615 7.22998 34.8515 7.21998C35.7015 7.21998 36.1315 7.95998 36.1415 8.79998H33.5015ZM32.0915 9.70998C32.2415 12.06 34.0615 13.17 36.3115 12.64C36.6915 12.52 37.0515 12.38 37.4115 12.21L37.0215 11.22C36.3115 11.61 35.4815 11.72 34.7015 11.53C33.9815 11.27 33.5015 10.58 33.5315 9.80998L37.5915 9.79998C37.5915 7.93998 37.0315 6.12998 34.8915 6.10998C32.8015 6.08998 31.9715 7.84998 32.0915 9.70998Z" fill="black"/>
<path fill-rule="evenodd" clip-rule="evenodd" d="M12.2015 0C17.7315 0 21.3715 4.45 20.3215 9.95C19.0915 15.6 14.1815 19.69 8.40147 19.9C2.86147 19.9 -0.768534 15.45 0.271466 9.95C1.51147 4.3 6.41147 0.2 12.2015 0ZM14.8415 1.29C18.2615 2.49 20.2515 5.91 19.4815 9.95C18.4215 14.76 14.4515 18.39 9.56147 19.02C9.19147 19 9.19147 18.79 9.17147 18.48C9.19147 17.83 9.21147 17.17 9.23147 16.52C9.24147 16.42 9.20147 16.39 9.16147 16.38C8.68147 16.33 8.20147 16.23 7.73147 16.08C7.19147 15.86 6.68147 15.58 6.20147 15.26C5.96147 15.15 6.00147 14.6 6.00147 14.39C6.04147 14 6.33147 13.11 6.78147 13.07C7.33147 13.04 7.59147 13.33 8.13147 13.59C9.14147 14.13 10.3215 14.22 11.4015 13.84C11.8215 13.65 12.0015 13.15 11.8115 12.74C11.8015 12.72 11.7915 12.69 11.7715 12.67C11.3815 11.86 9.54147 11.2 8.70147 10.8C6.77147 10.14 5.59147 8.17 5.93147 6.15C6.29147 4.61 7.56147 3.46 9.12147 3.26V2.53C7.40147 3.08 5.86147 4.05 4.62147 5.36C2.73147 7.17 1.66147 9.66 1.63147 12.27C1.64147 14.92 3.15147 17.34 5.52147 18.52C2.11147 17.17 0.231466 13.51 1.11147 9.95C2.19147 5 6.36147 1.32 11.4015 0.85C11.5915 0.96 11.6015 0.98 11.7115 1.24C11.6715 1.85 11.6315 2.46 11.5915 3.06C12.5315 3.19 13.4215 3.57 14.1815 4.14C14.2015 5.54 13.1615 6.12 12.7615 5.91C12.1415 5.67 11.5015 5.48 10.8515 5.33C10.4515 5.25 10.0315 5.3 9.65147 5.47C9.18147 5.69 8.96147 6.02 9.18147 6.54C9.38147 6.9 9.68147 7.2 10.0415 7.4C11.0515 7.94 12.0515 8.49 13.0615 9.03C13.8615 9.46 14.5215 10.11 14.9415 10.91C15.2315 11.64 15.2915 12.45 15.1315 13.22C14.8815 14.22 14.2215 15.07 13.3215 15.57C12.8415 15.85 12.3115 16.06 11.7715 16.17C11.7515 16.5 11.7415 16.81 11.7215 17.14C11.7615 17.16 11.8115 17.16 11.8515 17.14C12.9715 16.74 14.0215 16.16 14.9615 15.42C16.2615 14.41 17.3115 13.11 18.0215 11.63C18.4715 10.73 18.7815 9.76 18.9215 8.76C19.4615 5.63 17.7715 2.53 14.8415 1.29Z" fill="#FFB200"/>
</svg>
