<svg width="29" height="23" viewBox="0 0 29 23" fill="none" xmlns="http://www.w3.org/2000/svg">
<path d="M7.68496 19.8498V18.7198C7.71496 18.3498 7.43496 18.0298 7.06496 17.9998C7.03496 17.9998 7.00496 17.9998 6.97496 17.9998C6.72496 17.9798 6.47496 18.1098 6.34496 18.3198C6.21496 18.1098 5.98496 17.9898 5.74496 17.9998C5.53496 17.9898 5.33496 18.0898 5.21496 18.2698V18.0498H4.83496V19.8498H5.23496V18.8598C5.20496 18.6298 5.36496 18.4198 5.59496 18.3798C5.62496 18.3798 5.64496 18.3798 5.67496 18.3798C5.93496 18.3798 6.06496 18.5498 6.06496 18.8498V19.8498H6.46496V18.8498C6.43496 18.6198 6.59496 18.3998 6.82496 18.3698C6.85496 18.3698 6.87496 18.3698 6.90496 18.3698C7.17496 18.3698 7.30496 18.5398 7.30496 18.8398V19.8398L7.68496 19.8498ZM13.545 18.0498H12.895V17.4998H12.495V18.0498H12.135V18.4098H12.505V19.2398C12.505 19.6598 12.665 19.9098 13.135 19.9098C13.305 19.9098 13.475 19.8598 13.625 19.7698L13.515 19.4298C13.405 19.4898 13.295 19.5298 13.165 19.5298C12.975 19.5298 12.905 19.4098 12.905 19.2298V18.3998H13.545V18.0498ZM16.895 17.9998C16.705 17.9898 16.515 18.0998 16.425 18.2598V18.0398H16.035V19.8398H16.425V18.8298C16.425 18.5298 16.555 18.3698 16.805 18.3698C16.885 18.3698 16.975 18.3798 17.045 18.4098L17.165 18.0298C17.075 17.9998 16.985 17.9798 16.885 17.9798L16.895 17.9998ZM11.835 18.1898C11.615 18.0598 11.355 17.9898 11.095 17.9998C10.635 17.9998 10.345 18.2198 10.345 18.5798C10.345 18.8698 10.565 19.0498 10.965 19.1098L11.155 19.1398C11.375 19.1698 11.475 19.2298 11.475 19.3298C11.475 19.4698 11.335 19.5498 11.065 19.5498C10.845 19.5598 10.635 19.4898 10.465 19.3598L10.275 19.6698C10.505 19.8298 10.775 19.9098 11.055 19.8998C11.575 19.8998 11.875 19.6498 11.875 19.3098C11.875 18.9698 11.635 18.8298 11.245 18.7698L11.055 18.7398C10.885 18.7198 10.745 18.6798 10.745 18.5598C10.745 18.4398 10.875 18.3498 11.085 18.3498C11.285 18.3498 11.475 18.4098 11.655 18.4998L11.835 18.1898ZM22.335 17.9998C22.145 17.9898 21.955 18.0998 21.865 18.2598V18.0398H21.475V19.8398H21.865V18.8298C21.865 18.5298 21.995 18.3698 22.245 18.3698C22.325 18.3698 22.415 18.3798 22.485 18.4098L22.605 18.0298C22.515 17.9998 22.425 17.9798 22.325 17.9798L22.335 17.9998ZM17.285 18.9498C17.265 19.4498 17.655 19.8798 18.165 19.8898C18.195 19.8898 18.225 19.8898 18.255 19.8898C18.495 19.8998 18.725 19.8298 18.905 19.6798L18.715 19.3598C18.575 19.4598 18.415 19.5198 18.245 19.5198C17.925 19.4898 17.685 19.2098 17.715 18.8898C17.735 18.6098 17.965 18.3798 18.245 18.3598C18.415 18.3598 18.585 18.4198 18.715 18.5198L18.905 18.1998C18.725 18.0498 18.495 17.9698 18.255 17.9898C17.755 17.9598 17.325 18.3498 17.295 18.8498C17.285 18.8798 17.275 18.9098 17.285 18.9498ZM20.955 18.9498V18.0498H20.565V18.2698C20.425 18.0998 20.215 17.9998 19.995 18.0098C19.475 18.0098 19.055 18.4298 19.055 18.9498C19.055 19.4698 19.475 19.8898 19.995 19.8898C20.215 19.8998 20.425 19.7998 20.565 19.6298V19.8498H20.955V18.9498ZM19.495 18.9498C19.515 18.6498 19.775 18.4298 20.075 18.4498C20.375 18.4698 20.595 18.7298 20.575 19.0298C20.555 19.3298 20.295 19.5498 19.995 19.5298C19.855 19.5198 19.735 19.4598 19.635 19.3598C19.535 19.2398 19.485 19.0898 19.495 18.9498ZM14.765 17.9998C14.245 18.0098 13.825 18.4398 13.835 18.9598C13.845 19.4798 14.275 19.8998 14.795 19.8898C15.065 19.8998 15.335 19.8198 15.545 19.6398L15.355 19.3498C15.205 19.4698 15.025 19.5398 14.835 19.5398C14.565 19.5598 14.325 19.3698 14.295 19.0998H15.635V18.9498C15.685 18.4798 15.335 18.0598 14.865 18.0098C14.825 18.0098 14.795 18.0098 14.765 17.9998ZM14.765 18.3498C15.015 18.3398 15.215 18.5398 15.225 18.7898H14.285C14.295 18.5398 14.505 18.3498 14.765 18.3498ZM24.585 18.9498V17.3198H24.205V18.2598C24.065 18.0898 23.855 17.9898 23.635 17.9998C23.115 17.9998 22.695 18.4198 22.695 18.9398C22.695 19.4598 23.115 19.8798 23.635 19.8798C23.855 19.8898 24.065 19.7898 24.205 19.6198V19.8398H24.585V18.9498ZM25.245 19.5898C25.315 19.5898 25.385 19.6298 25.415 19.6998C25.435 19.7398 25.435 19.7998 25.415 19.8398C25.395 19.8798 25.355 19.9198 25.315 19.9298C25.295 19.9398 25.265 19.9498 25.245 19.9398C25.175 19.9398 25.105 19.8998 25.075 19.8298C25.055 19.7898 25.055 19.7298 25.075 19.6898C25.105 19.6298 25.175 19.5898 25.245 19.5898ZM25.245 19.9098C25.265 19.9098 25.285 19.9098 25.305 19.8998C25.325 19.8898 25.335 19.8798 25.345 19.8698C25.395 19.8198 25.395 19.7298 25.345 19.6798C25.335 19.6698 25.315 19.6598 25.305 19.6498C25.285 19.6398 25.265 19.6398 25.245 19.6398C25.225 19.6398 25.205 19.6398 25.185 19.6498C25.165 19.6598 25.155 19.6698 25.145 19.6798C25.095 19.7398 25.095 19.8198 25.155 19.8698C25.175 19.8998 25.215 19.9098 25.245 19.9098ZM25.255 19.6898C25.275 19.6898 25.285 19.6898 25.305 19.6998C25.315 19.7098 25.325 19.7198 25.325 19.7398C25.325 19.7498 25.325 19.7698 25.315 19.7698C25.305 19.7798 25.285 19.7898 25.275 19.7898L25.335 19.8498H25.295L25.245 19.7898H25.225V19.8498H25.185V19.6798L25.255 19.6898ZM25.215 19.7198V19.7598H25.255C25.265 19.7598 25.275 19.7598 25.275 19.7598C25.275 19.7498 25.275 19.7498 25.275 19.7398C25.275 19.7298 25.275 19.7298 25.275 19.7198C25.265 19.7198 25.255 19.7198 25.255 19.7198H25.215ZM23.145 18.9498C23.165 18.6498 23.425 18.4298 23.725 18.4498C24.025 18.4698 24.245 18.7298 24.225 19.0298C24.205 19.3298 23.945 19.5498 23.645 19.5298C23.505 19.5198 23.385 19.4598 23.285 19.3598C23.185 19.2398 23.135 19.0998 23.145 18.9498ZM9.89496 18.9498V18.0498H9.50496V18.2698C9.37496 18.0898 9.16496 17.9898 8.93496 17.9998C8.41496 17.9998 7.99496 18.4198 7.99496 18.9398C7.99496 19.4598 8.41496 19.8798 8.93496 19.8798C9.15496 19.8898 9.36496 19.7898 9.50496 19.6198V19.8398H9.89496V18.9498ZM8.43496 18.9498C8.45496 18.6598 8.71496 18.4398 9.01496 18.4598C9.30496 18.4798 9.52496 18.7398 9.50496 19.0398C9.48496 19.3298 9.22496 19.5498 8.92496 19.5298C8.79496 19.5198 8.66496 19.4598 8.57496 19.3598C8.48496 19.2498 8.42496 19.0998 8.43496 18.9498Z" fill="#231F20"/>
<path d="M17.6431 4.30713H11.7031V14.9771H17.6431V4.30713Z" fill="#FF5F00"/>
<path d="M12.0831 9.64688C12.0831 7.56688 13.0331 5.59688 14.6731 4.30688C11.7231 1.98688 7.46306 2.50688 5.14306 5.44688C2.82306 8.38688 3.34306 12.6569 6.28306 14.9769C8.74306 16.9069 12.2131 16.9069 14.6731 14.9769C13.0331 13.6969 12.0831 11.7269 12.0831 9.64688Z" fill="#EB001B"/>
<path d="M25.6631 9.64705C25.6631 13.397 22.6231 16.437 18.8731 16.437C17.3531 16.437 15.8731 15.927 14.6831 14.987C17.6331 12.667 18.1431 8.40704 15.8231 5.45704C15.4931 5.03704 15.1031 4.64705 14.6831 4.31704C17.6331 1.99705 21.8931 2.50704 24.2131 5.45704C25.1431 6.64704 25.6531 8.12705 25.6631 9.64705Z" fill="#F79E1B"/>
<path d="M25.0131 13.8469V13.6269H25.1031V13.5869H24.8831V13.6269H24.9831V13.8469H25.0131ZM25.4431 13.8469V13.5869H25.3731L25.2931 13.7769L25.2131 13.5869H25.1531V13.8469H25.2031V13.6469L25.2731 13.8169H25.3231L25.3931 13.6469V13.8469H25.4431Z" fill="#F79E1B"/>
</svg>
