<svg width="55" height="22" viewBox="0 0 55 22" fill="none" xmlns="http://www.w3.org/2000/svg">
<path d="M41.383 15.8671H35.393C35.203 15.8671 35.053 15.7171 35.053 15.5271C35.053 15.3371 35.203 15.1871 35.393 15.1871H41.353C42.443 14.9571 43.223 14.0071 43.223 12.8971C43.293 11.0671 42.243 10.8871 42.073 10.8671H38.223C37.083 10.6771 36.293 9.63709 36.403 8.48709C36.433 7.04709 37.453 5.80709 38.873 5.52709C38.893 5.51709 38.923 5.51709 38.943 5.51709H44.333C44.523 5.51709 44.673 5.66709 44.673 5.85709C44.673 6.04709 44.523 6.19709 44.333 6.19709H38.983C37.893 6.42709 37.113 7.37709 37.083 8.48709C37.083 8.49709 37.083 8.50709 37.083 8.51709C37.013 9.30709 37.533 10.0171 38.303 10.1871H42.093C42.113 10.1871 43.993 10.3271 43.893 12.9271C43.873 14.3671 42.843 15.5971 41.433 15.8671C41.423 15.8671 41.403 15.8671 41.383 15.8671Z" fill="#004F9B"/>
<path d="M52.6709 15.906H47.1409H47.1109C46.3809 15.826 44.9909 15.316 44.9609 13.956C45.1509 11.926 45.4709 9.91601 45.9409 7.92601C45.9409 7.90601 45.9509 7.89601 45.9509 7.88601C45.9909 7.79601 46.8009 5.65601 48.6009 5.65601H52.5809C52.6109 5.65601 52.6409 5.65601 52.6709 5.66601C52.7409 5.68601 54.3709 6.17601 54.3709 7.57601C54.3209 8.67601 54.2009 9.76601 54.0109 10.846C53.9809 11.006 53.8409 11.126 53.6709 11.126L45.9809 11.186C45.8009 12.096 45.6809 13.016 45.6409 13.946C45.6609 14.996 46.9909 15.206 47.1609 15.226H52.6709C52.8609 15.226 53.0109 15.376 53.0109 15.566C53.0109 15.756 52.8609 15.906 52.6709 15.906ZM46.6009 8.09601C46.5609 8.26601 46.3309 9.31601 46.1109 10.496L53.3909 10.436C53.5509 9.48601 53.6509 8.53601 53.6909 7.57601C53.6909 6.77601 52.7309 6.40601 52.5209 6.33601H48.5909C47.3409 6.33601 46.6809 7.90601 46.6009 8.09601Z" fill="#004F9B"/>
<path d="M25.0201 20.367C25.0001 20.367 24.9801 20.367 24.9601 20.357C24.7801 20.327 24.6501 20.147 24.6801 19.967C24.6801 19.967 24.6801 19.967 24.6801 19.957C24.6801 19.957 25.2201 16.957 25.7701 13.967C26.0401 12.467 26.3201 10.967 26.5201 9.84704C26.6201 9.28704 26.7101 8.81704 26.7701 8.48704C26.8101 8.29704 26.8501 8.10704 26.9001 7.91704C27.3301 6.81704 28.2401 5.96704 29.3601 5.60704C29.3901 5.60704 29.4201 5.60704 29.4501 5.60704C29.6801 5.60704 31.8401 5.60704 33.2601 5.60704C33.5901 5.59704 35.3501 6.26704 35.1501 7.66704C35.1501 7.67704 35.1501 7.69704 35.1501 7.70704L34.2001 13.487C34.2001 13.497 34.2001 13.517 34.1901 13.527C33.8701 14.587 33.0601 15.437 32.0101 15.807C31.9801 15.817 31.9501 15.817 31.9201 15.817L28.4201 15.917C28.4101 15.917 28.3901 15.917 28.3801 15.917C27.5601 15.787 26.8301 15.337 26.3301 14.677C25.9501 16.747 25.5801 18.817 25.3501 20.087C25.3301 20.247 25.1801 20.367 25.0201 20.367ZM26.5101 13.707C26.8701 14.487 27.5801 15.057 28.4301 15.237L31.8501 15.137C32.6501 14.827 33.2601 14.167 33.5201 13.347L34.4701 7.60704C34.5701 6.96704 33.5801 6.27704 33.1801 6.27704H31.3401H30.0201C29.7701 6.27704 29.5901 6.27704 29.4601 6.26704C28.5901 6.60704 27.9001 7.27704 27.5401 8.13704C27.4801 8.41704 27.0201 10.937 26.5101 13.707Z" fill="#004F9B"/>
<path d="M20.42 4.16997C20.42 4.68997 20 5.11997 19.47 5.11997C18.95 5.11997 18.52 4.69997 18.52 4.16997C18.52 3.64997 18.94 3.21997 19.47 3.21997C20 3.21997 20.42 3.64997 20.42 4.16997Z" fill="#FFA600"/>
<path d="M17.3299 1.9C17.8546 1.9 18.2799 1.47467 18.2799 0.95C18.2799 0.425329 17.8546 0 17.3299 0C16.8052 0 16.3799 0.425329 16.3799 0.95C16.3799 1.47467 16.8052 1.9 17.3299 1.9Z" fill="#FFA600"/>
<path d="M16.12 4.16997C16.12 4.68997 15.7 5.11997 15.17 5.11997C14.65 5.11997 14.22 4.69997 14.22 4.16997C14.22 3.64997 14.64 3.21997 15.17 3.21997C15.69 3.21997 16.12 3.64997 16.12 4.16997Z" fill="#FFA600"/>
<path d="M19.3699 18.0499C19.8946 18.0499 20.3199 17.6246 20.3199 17.0999C20.3199 16.5752 19.8946 16.1499 19.3699 16.1499C18.8453 16.1499 18.4199 16.5752 18.4199 17.0999C18.4199 17.6246 18.8453 18.0499 19.3699 18.0499Z" fill="#FFA600"/>
<path d="M17.3201 15.0201C17.8448 15.0201 18.2701 14.5948 18.2701 14.0701C18.2701 13.5454 17.8448 13.1201 17.3201 13.1201C16.7954 13.1201 16.3701 13.5454 16.3701 14.0701C16.3701 14.5948 16.7954 15.0201 17.3201 15.0201Z" fill="#FFA600"/>
<path d="M13.1301 14.86C13.5664 14.86 13.9201 14.5063 13.9201 14.07C13.9201 13.6337 13.5664 13.28 13.1301 13.28C12.6938 13.28 12.3401 13.6337 12.3401 14.07C12.3401 14.5063 12.6938 14.86 13.1301 14.86Z" fill="#FFA600"/>
<path d="M16.0099 17.1001C16.0099 17.5301 15.6599 17.8901 15.2199 17.8901C14.7899 17.8901 14.4399 17.5401 14.4399 17.1001C14.4399 16.6701 14.7899 16.3101 15.2199 16.3101C15.6499 16.3101 16.0099 16.6601 16.0099 17.1001Z" fill="#FFA600"/>
<path d="M13.08 21.2099C13.5163 21.2099 13.87 20.8562 13.87 20.4199C13.87 19.9836 13.5163 19.6299 13.08 19.6299C12.6437 19.6299 12.29 19.9836 12.29 20.4199C12.29 20.8562 12.6437 21.2099 13.08 21.2099Z" fill="#FFA600"/>
<path d="M11.0499 17.71C11.3868 17.71 11.6599 17.4369 11.6599 17.1C11.6599 16.7631 11.3868 16.49 11.0499 16.49C10.713 16.49 10.4399 16.7631 10.4399 17.1C10.4399 17.4369 10.713 17.71 11.0499 17.71Z" fill="#FFA600"/>
<path d="M3.56996 11.3499C3.90685 11.3499 4.17996 11.0768 4.17996 10.7399C4.17996 10.403 3.90685 10.1299 3.56996 10.1299C3.23307 10.1299 2.95996 10.403 2.95996 10.7399C2.95996 11.0768 3.23307 11.3499 3.56996 11.3499Z" fill="#FFA600"/>
<path d="M4.66005 8.11014C4.99694 8.11014 5.27005 7.83703 5.27005 7.50014C5.27005 7.16324 4.99694 6.89014 4.66005 6.89014C4.32315 6.89014 4.05005 7.16324 4.05005 7.50014C4.05005 7.83703 4.32315 8.11014 4.66005 8.11014Z" fill="#FFA600"/>
<path d="M7.32986 4.17006C7.32986 4.51006 7.05986 4.78006 6.71986 4.78006C6.37986 4.78006 6.10986 4.51006 6.10986 4.17006C6.10986 3.83006 6.37986 3.56006 6.71986 3.56006C7.05986 3.56006 7.32986 3.84006 7.32986 4.17006Z" fill="#FFA600"/>
<path d="M9.41995 1.02016C9.41995 1.36016 9.14995 1.63016 8.80995 1.63016C8.46995 1.63016 8.19995 1.36016 8.19995 1.02016C8.19995 0.680156 8.46995 0.410156 8.80995 0.410156C9.14995 0.410156 9.41995 0.690156 9.41995 1.02016Z" fill="#FFA600"/>
<path d="M8.87001 21.0301C9.2069 21.0301 9.48001 20.757 9.48001 20.4201C9.48001 20.0832 9.2069 19.8101 8.87001 19.8101C8.53312 19.8101 8.26001 20.0832 8.26001 20.4201C8.26001 20.757 8.53312 21.0301 8.87001 21.0301Z" fill="#FFA600"/>
<path d="M6.77992 17.71C7.11682 17.71 7.38992 17.4369 7.38992 17.1C7.38992 16.7631 7.11682 16.49 6.77992 16.49C6.44303 16.49 6.16992 16.7631 6.16992 17.1C6.16992 17.4369 6.44303 17.71 6.77992 17.71Z" fill="#FFA600"/>
<path d="M4.63002 14.68C4.96691 14.68 5.24002 14.4069 5.24002 14.07C5.24002 13.7331 4.96691 13.46 4.63002 13.46C4.29313 13.46 4.02002 13.7331 4.02002 14.07C4.02002 14.4069 4.29313 14.68 4.63002 14.68Z" fill="#FFA600"/>
<path d="M3.47992 17.41C3.65113 17.41 3.78992 17.2712 3.78992 17.1C3.78992 16.9288 3.65113 16.79 3.47992 16.79C3.30871 16.79 3.16992 16.9288 3.16992 17.1C3.16992 17.2712 3.30871 17.41 3.47992 17.41Z" fill="#FFA600"/>
<path d="M1.51996 14.38C1.69117 14.38 1.82996 14.2412 1.82996 14.07C1.82996 13.8988 1.69117 13.76 1.51996 13.76C1.34875 13.76 1.20996 13.8988 1.20996 14.07C1.20996 14.2412 1.34875 14.38 1.51996 14.38Z" fill="#FFA600"/>
<path d="M0.63 10.6801C0.63 10.8501 0.49 10.9901 0.32 10.9901C0.14 11.0001 0 10.8601 0 10.6801C0 10.5001 0.14 10.3701 0.31 10.3701C0.49 10.3701 0.63 10.5101 0.63 10.6801Z" fill="#FFA600"/>
<path d="M1.43012 7.80994C1.60133 7.80994 1.74012 7.67115 1.74012 7.49994C1.74012 7.32873 1.60133 7.18994 1.43012 7.18994C1.25891 7.18994 1.12012 7.32873 1.12012 7.49994C1.12012 7.67115 1.25891 7.80994 1.43012 7.80994Z" fill="#FFA600"/>
<path d="M3.54999 4.51014C3.7212 4.51014 3.85999 4.37134 3.85999 4.20014C3.85999 4.02893 3.7212 3.89014 3.54999 3.89014C3.37878 3.89014 3.23999 4.02893 3.23999 4.20014C3.23999 4.37134 3.37878 4.51014 3.54999 4.51014Z" fill="#FFA600"/>
<path d="M8.84005 14.86C9.27635 14.86 9.63005 14.5063 9.63005 14.07C9.63005 13.6337 9.27635 13.28 8.84005 13.28C8.40374 13.28 8.05005 13.6337 8.05005 14.07C8.05005 14.5063 8.40374 14.86 8.84005 14.86Z" fill="#FFA600"/>
<path d="M6.63009 11.53C7.06639 11.53 7.42009 11.1763 7.42009 10.74C7.42009 10.3036 7.06639 9.94995 6.63009 9.94995C6.19378 9.94995 5.84009 10.3036 5.84009 10.74C5.84009 11.1763 6.19378 11.53 6.63009 11.53Z" fill="#FFA600"/>
<path d="M9.59002 7.49993C9.59002 7.92993 9.24002 8.27993 8.80002 8.27993C8.36002 8.27993 8.02002 7.92993 8.02002 7.49993C8.02002 7.06993 8.37002 6.71993 8.80002 6.71993C9.24002 6.70993 9.59002 7.06993 9.59002 7.49993Z" fill="#FFA600"/>
<path d="M10.99 4.95988C11.4263 4.95988 11.78 4.60619 11.78 4.16988C11.78 3.73358 11.4263 3.37988 10.99 3.37988C10.5536 3.37988 10.2 3.73358 10.2 4.16988C10.2 4.60619 10.5536 4.95988 10.99 4.95988Z" fill="#FFA600"/>
<path d="M13.05 1.74992C13.4863 1.74992 13.84 1.39623 13.84 0.959922C13.84 0.523617 13.4863 0.169922 13.05 0.169922C12.6137 0.169922 12.26 0.523617 12.26 0.959922C12.26 1.39623 12.6137 1.74992 13.05 1.74992Z" fill="#FFA600"/>
<path d="M10.93 11.69C11.4547 11.69 11.88 11.2647 11.88 10.74C11.88 10.2154 11.4547 9.79004 10.93 9.79004C10.4053 9.79004 9.97998 10.2154 9.97998 10.74C9.97998 11.2647 10.4053 11.69 10.93 11.69Z" fill="#FFA600"/>
<path d="M13.0501 8.45005C13.5748 8.45005 14.0001 8.02472 14.0001 7.50005C14.0001 6.97538 13.5748 6.55005 13.0501 6.55005C12.5254 6.55005 12.1001 6.97538 12.1001 7.50005C12.1001 8.02472 12.5254 8.45005 13.0501 8.45005Z" fill="#FFA600"/>
<path d="M17.3201 21.37C17.8448 21.37 18.2701 20.9446 18.2701 20.42C18.2701 19.8953 17.8448 19.47 17.3201 19.47C16.7954 19.47 16.3701 19.8953 16.3701 20.42C16.3701 20.9446 16.7954 21.37 17.3201 21.37Z" fill="#FFA600"/>
<path d="M25.4599 10.4102H11.4099V10.9902H25.4599V10.4102Z" fill="#FFA600"/>
<path d="M18.17 7.19995H13.75V7.77995H18.17V7.19995Z" fill="#FFA600"/>
<path d="M20.0701 10.96L17.6401 7.19995H18.3201L20.7501 10.95H20.0701V10.96Z" fill="#FFA600"/>
<path d="M20.3101 13.78H18.0601V14.36H20.3101V13.78Z" fill="#FFA600"/>
<path d="M19.78 14.36L21.8 10.96H22.38L20.36 14.36H19.78Z" fill="#FFA600"/>
</svg>
