<svg width="109" height="10" viewBox="0 0 109 10" fill="none" xmlns="http://www.w3.org/2000/svg">
<path d="M34.3549 0H35.0868H35.0915H35.8234L40.112 9.99842H38.347L35.0899 1.92429L33.0805 6.79022L34.9985 6.7918L34.4559 8.0489H32.6436L31.8297 9.99842H30.0647L34.3549 0Z" fill="black"/>
<path d="M13.2588 0.0078125H14.9323L14.9339 9.99046H13.2604L13.2588 0.0078125Z" fill="black"/>
<path d="M7.46845 1.42335H4.86909V9.99591H3.20505V1.42335H0V0.00537109H8.08202L7.46845 1.42335Z" fill="black"/>
<path d="M27.5725 1.42286H24.9731V9.99542H23.3091V1.42286H20.104V0.00488281H28.186L27.5725 1.42286Z" fill="black"/>
<path d="M72.8754 0V1.41956H68.1861V4.40536H70.888L70.3422 5.72555H68.1861V8.58833H72.8738V10H66.5347V0H72.8754Z" fill="black"/>
<path d="M51.9621 0.00157729L55.8154 5.41009L59.6576 0H61.1387L61.1403 9.99842H59.5062L59.5046 2.51735L55.9983 7.34385H55.6072L52.0993 2.53312L52.1009 9.99842H50.4668L50.4652 0L51.9621 0.00157729Z" fill="black"/>
<path d="M84.2682 0.586751C85.0364 0.977918 85.6263 1.54732 86.0411 2.29338C86.4512 3.03943 86.6547 3.9306 86.6547 4.96372C86.6547 5.99685 86.4528 6.89274 86.049 7.64984C85.6452 8.40694 85.0648 8.98738 84.3077 9.39117C83.5506 9.79495 82.6531 9.99685 81.6152 9.99842H77.978L77.9764 0H81.5443C82.5932 0 83.5001 0.195584 84.2682 0.586751ZM84.008 7.65457C84.6121 7.03312 84.9133 6.1388 84.9133 4.97319C84.9133 3.81703 84.6121 2.93533 84.0111 2.32965C83.4102 1.72397 82.5316 1.41956 81.3755 1.41956H79.6263L79.6279 8.58675H81.4228C82.5427 8.58675 83.4039 8.27602 84.008 7.65457Z" fill="black"/>
<path d="M91.5868 0.0078125H93.2603L93.2619 9.99046H91.5884L91.5868 0.0078125Z" fill="black"/>
<path d="M102.405 0H103.137H103.142H103.874L108.161 9.99842H106.396L103.139 1.92429L101.131 6.79022L103.049 6.7918L102.549 8.0489H100.692L99.8785 9.99842H98.1151L102.405 0Z" fill="black"/>
</svg>
