<svg width="36" height="11" viewBox="0 0 36 11" fill="none" xmlns="http://www.w3.org/2000/svg">
<path d="M31.91 2.90701H31.5C30.88 4.21701 30.42 5.597 30.13 7.017H32.73C32.55 5.62701 32.28 4.25701 31.91 2.90701ZM35.88 10.987H33.55C33.41 10.987 33.41 10.987 33.28 10.847L33.01 9.61701L32.87 9.347H29.58C29.44 9.347 29.31 9.347 29.31 9.61701L28.9 10.847C28.9 10.917 28.84 10.987 28.77 10.987C28.77 10.987 28.77 10.987 28.76 10.987H25.88L26.15 10.307L30.12 0.997005C30.12 0.307005 30.53 0.0370054 31.22 0.0370054H33.27C33.41 0.0370054 33.54 0.0370054 33.54 0.307005L35.46 9.20701C35.62 9.69701 35.71 10.197 35.73 10.717C35.88 10.847 35.88 10.847 35.88 10.987ZM17.53 10.577L18.08 8.10701C18.18 8.11701 18.28 8.16701 18.35 8.24701C19.24 8.68701 20.24 8.87701 21.23 8.79701C21.56 8.76701 21.89 8.677 22.19 8.52701C22.87 8.257 22.87 7.56701 22.33 7.017C21.98 6.757 21.62 6.52701 21.23 6.32701C20.68 6.08701 20.17 5.76701 19.72 5.36701C18.52 4.39701 18.33 2.63701 19.3 1.42701C19.39 1.31701 19.48 1.21701 19.58 1.12701C20.41 0.577005 20.82 0.0270054 21.91 0.0270054C23.33 -0.0529946 24.76 0.0470054 26.16 0.297005H26.3C26.18 1.08701 26 1.86701 25.75 2.62701C25.11 2.31701 24.41 2.13701 23.7 2.07701C23.28 2.05701 22.87 2.09701 22.47 2.21701C22.26 2.21701 22.05 2.31701 21.92 2.48701C21.66 2.73701 21.64 3.15701 21.9 3.42701C21.91 3.43701 21.92 3.44701 21.92 3.44701L22.6 3.99701C23.12 4.23701 23.62 4.517 24.11 4.81701C24.86 5.21701 25.41 5.90701 25.62 6.73701C25.91 7.93701 25.42 9.19701 24.39 9.887C23.9 10.427 23.2 10.727 22.47 10.707C20.91 10.847 19.34 10.747 17.81 10.437C17.67 10.707 17.67 10.707 17.53 10.577ZM12.74 10.987C12.77 10.517 12.87 10.057 13.01 9.61701C13.69 6.60701 14.38 3.45701 14.93 0.437005C15.06 0.167005 15.06 0.0270054 15.34 0.0270054H17.8C17.56 1.50701 17.24 2.96701 16.84 4.40701C16.43 6.45701 16.02 8.517 15.47 10.567C15.47 10.837 15.33 10.837 15.06 10.837L12.74 10.987ZM0 0.297005C0 0.167005 0.27 0.0270054 0.41 0.0270054H5.07C5.74 -0.00299462 6.32 0.467005 6.44 1.12701L7.67 7.15701C7.67 7.29701 7.67 7.29701 7.81 7.42701C7.81 7.35701 7.87 7.28701 7.94 7.28701C7.94 7.28701 7.94 7.28701 7.95 7.28701L10.83 0.297005C10.68 0.167005 10.82 0.0270054 10.96 0.0270054H13.84C13.84 0.167005 13.84 0.167005 13.7 0.297005L9.45 10.297C9.31 10.567 9.31 10.707 9.18 10.847C9.05 10.987 8.77 10.847 8.49 10.847H6.44C6.3 10.847 6.17 10.847 6.17 10.577L3.98 2.07701C3.64 1.69701 3.22 1.41701 2.74 1.25701C1.91 0.897005 1.04 0.667005 0.14 0.567005L0 0.297005Z" fill="#142688"/>
</svg>
