<svg width="49" height="18" viewBox="0 0 49 18" fill="none" xmlns="http://www.w3.org/2000/svg">
<path d="M19.21 0H3.7C2.82 0 2.1 0.72 2.11 1.61C2.11 1.87 2.17 2.12 2.29 2.34L3.84 5.28H1.03C0.46 5.28 0 5.74 0 6.31C0 6.48 0.04 6.65 0.12 6.8L5.11 16.24C5.38 16.74 6 16.94 6.51 16.67C6.69 16.57 6.84 16.42 6.94 16.24L8.29 13.69L9.99 16.91C10.41 17.69 11.38 17.98 12.16 17.56C12.44 17.41 12.66 17.18 12.81 16.91L20.58 2.28C20.98 1.52 20.69 0.58 19.93 0.18C19.71 0.06 19.47 0 19.21 0ZM12.25 6.25L8.9 12.56C8.72 12.9 8.31 13.02 7.97 12.85C7.85 12.79 7.75 12.69 7.68 12.56L4.36 6.28C4.18 5.94 4.31 5.52 4.64 5.35C4.74 5.3 4.85 5.27 4.96 5.27H11.65C12.02 5.27 12.32 5.57 12.32 5.94C12.32 6.05 12.3 6.15 12.25 6.25Z" fill="black"/>
<path d="M35.7084 6.79015H34.0084V12.6002C34.0084 12.7102 33.9184 12.8002 33.8084 12.8002H32.4984C32.3884 12.8002 32.2984 12.7102 32.2984 12.6002V6.79015H30.5984C30.4884 6.79015 30.3984 6.71015 30.3984 6.61015C30.3984 6.61015 30.3984 6.61015 30.3984 6.60015V5.57015C30.3984 5.46015 30.4884 5.38015 30.5884 5.38015C30.5884 5.38015 30.5884 5.38015 30.5984 5.38015H35.7084C35.8184 5.37015 35.9084 5.46015 35.9184 5.57015V6.60015C35.9084 6.71015 35.8184 6.79015 35.7084 6.79015Z" fill="black"/>
<path d="M41.16 12.7598C40.49 12.8598 39.82 12.8998 39.14 12.8898C37.85 12.8898 36.71 12.5598 36.71 10.7398V7.41981C36.71 5.59981 37.86 5.27981 39.15 5.27981C39.82 5.26981 40.49 5.30981 41.16 5.40981C41.3 5.42981 41.36 5.47981 41.36 5.60981V6.53981C41.36 6.64981 41.27 6.73981 41.16 6.73981H39.05C38.58 6.73981 38.41 6.89981 38.41 7.41981V8.32981H41.08C41.19 8.32981 41.28 8.41981 41.28 8.52981V9.47981C41.28 9.58981 41.19 9.67981 41.08 9.67981H38.41V10.7398C38.41 11.2598 38.58 11.4198 39.05 11.4198H41.16C41.27 11.4198 41.36 11.5098 41.36 11.6198V12.5498C41.36 12.6798 41.3 12.7398 41.16 12.7598Z" fill="black"/>
<path d="M48.6886 12.7999H47.0986C46.9886 12.8099 46.8886 12.7499 46.8386 12.6499L45.4586 10.4599L44.2086 12.5999C44.1386 12.7199 44.0686 12.7999 43.9586 12.7999H42.4786C42.4086 12.8099 42.3386 12.7599 42.3286 12.6899C42.3286 12.6799 42.3286 12.6799 42.3286 12.6699C42.3286 12.6499 42.3386 12.6199 42.3486 12.5999L44.5086 8.98988L42.3286 5.56988C42.3186 5.54988 42.3086 5.52988 42.3086 5.50988C42.3186 5.42988 42.3786 5.37988 42.4586 5.37988H44.0686C44.1786 5.37988 44.2586 5.47988 44.3186 5.56988L45.5986 7.58988L46.8386 5.56988C46.8786 5.46988 46.9786 5.39988 47.0886 5.37988H48.5686C48.6486 5.37988 48.7086 5.42988 48.7186 5.50988C48.7186 5.52988 48.7086 5.54988 48.6986 5.56988L46.5186 9.01988L48.7886 12.6099C48.8086 12.6399 48.8186 12.6699 48.8186 12.7099C48.8186 12.7599 48.7686 12.7999 48.6886 12.7999Z" fill="black"/>
<path d="M28.0114 5.3999C27.9414 5.3999 27.8714 5.4499 27.8614 5.5199L26.4114 10.8899C26.3914 10.9999 26.3614 11.0399 26.2714 11.0399C26.1814 11.0399 26.1514 10.9999 26.1314 10.8899L24.6814 5.5199C24.6614 5.4499 24.6014 5.3999 24.5214 5.3999H23.0914C23.0014 5.3999 22.9414 5.4699 22.9414 5.5499C22.9414 5.5599 22.9414 5.5699 22.9414 5.5899C22.9414 5.5899 24.7114 11.7399 24.7314 11.7999C24.9214 12.4799 25.5714 12.9299 26.2714 12.8799C26.9714 12.9099 27.6014 12.4599 27.8114 11.7999C27.8414 11.7199 29.5714 5.5799 29.5714 5.5799C29.5914 5.4999 29.5414 5.4099 29.4614 5.3999C29.4514 5.3999 29.4414 5.3999 29.4214 5.3999H28.0114Z" fill="black"/>
<path d="M19.21 0H3.7C2.82 0 2.1 0.72 2.11 1.61C2.11 1.87 2.17 2.12 2.29 2.34L3.84 5.28H1.03C0.46 5.28 0 5.74 0 6.31C0 6.48 0.04 6.65 0.12 6.8L5.11 16.24C5.38 16.74 6 16.94 6.51 16.67C6.69 16.57 6.84 16.42 6.94 16.24L8.29 13.69L9.99 16.91C10.41 17.69 11.38 17.98 12.16 17.56C12.44 17.41 12.66 17.18 12.81 16.91L20.58 2.28C20.98 1.52 20.69 0.58 19.93 0.18C19.71 0.06 19.47 0 19.21 0ZM12.25 6.25L8.9 12.56C8.72 12.9 8.31 13.02 7.97 12.85C7.85 12.79 7.75 12.69 7.68 12.56L4.36 6.28C4.18 5.94 4.31 5.52 4.64 5.35C4.74 5.3 4.85 5.27 4.96 5.27H11.65C12.02 5.27 12.32 5.57 12.32 5.94C12.32 6.05 12.3 6.15 12.25 6.25Z" fill="black"/>
</svg>
