<svg width="152" height="24" viewBox="0 0 152 24" fill="none" xmlns="http://www.w3.org/2000/svg">
<path d="M69.1839 12.274C69.1839 11.2555 69.2122 10.5765 69.2122 10.2087C69.2122 9.19018 68.7878 8.08679 67.1186 8.34142C63.6952 8.85068 60.9509 13.2643 60.0738 16.7159C59.1685 20.2241 60.5265 21.4973 62.026 21.4973C63.2991 21.4973 64.7703 20.5919 66.0718 18.47C66.3264 20.0261 66.8923 21.2427 68.0239 21.2427C68.9576 21.2427 69.7215 20.4788 69.6932 19.5451C69.6932 19.432 69.6649 19.2905 69.6649 19.1773C69.4668 18.4134 69.1839 13.8867 69.1839 12.274ZM63.186 18.3003C61.4884 18.3003 65.1381 11.5667 66.7508 11.0575C66.8357 14.2828 64.4591 18.3003 63.186 18.3003Z" fill="#C5292C"/>
<path d="M77.7575 8.34143C76.3146 8.34143 75.1546 9.44483 74.419 11.1141C74.3624 10.8311 74.3341 10.5482 74.2776 10.237C73.8249 7.63412 70.8825 8.34143 71.0805 10.8877C71.3635 14.6506 71.4766 18.4417 71.4766 19.3188C71.4766 19.8564 71.6464 21.3558 73.0327 21.3558C74.0229 21.3558 74.5039 20.592 74.5039 19.6017L74.4756 17.4232C74.4756 15.0184 75.3527 12.1043 76.7673 12.1043C78.6063 12.1043 77.9555 17.8759 78.1253 19.9129C78.2102 20.8466 78.8326 21.5822 79.7097 21.5822C80.5584 21.5822 81.4072 20.8749 81.3223 19.3471C80.9828 12.8682 80.9262 8.34143 77.7575 8.34143Z" fill="#C5292C"/>
<path d="M52.2091 2.68302C53.7652 2.08888 53.1994 -0.259374 51.5584 0.0235482C49.3516 0.391347 41.2601 2.93764 36.6484 5.05956C34.3002 6.13466 36.0826 8.36975 37.5538 7.91707C39.4211 7.35123 40.864 6.87026 43.9195 5.82345C44.4005 14.7921 43.4386 20.2808 38.7704 20.2808C36.8465 20.2808 34.3851 19.0925 31.5841 15.9238C29.9149 14.0282 28.0759 16.3481 29.3773 18.0457C31.471 20.7617 35.3753 23.4495 38.9684 23.4495C43.6083 23.4495 47.7107 19.2057 46.8619 4.74834L52.2091 2.68302Z" fill="#C5292C"/>
<path d="M58.4058 10.6614C58.4907 9.89753 58.3775 8.62438 56.7932 8.62438C55.9727 8.62438 55.4917 9.38827 55.4917 10.3785C55.4917 12.4155 54.5581 18.1306 52.9454 18.1306C51.1064 18.1306 52.0967 11.199 52.1815 10.0673C52.2664 9.13364 51.5591 8.36975 50.8235 8.36975C49.9182 8.36975 49.0977 9.13364 49.0977 10.6614C49.0977 11.1424 49.0694 13.0663 49.0694 14.1979C49.0694 17.6779 49.1543 21.5256 51.9269 21.5256C53.3415 21.5256 54.4449 20.2808 55.2088 18.5832C55.4634 20.0827 56.001 21.271 56.9912 21.271C57.9814 21.271 58.9434 20.0827 58.717 18.8944C58.0946 15.6691 58.2644 11.5385 58.4058 10.6614Z" fill="#C5292C"/>
<path d="M123.024 12.274C123.024 11.3687 123.052 10.7179 123.052 10.3501C123.137 8.22822 123.194 5.48388 123.194 4.74828C123.194 2.20198 120.365 2.82441 120.365 5.08779C120.393 6.44581 120.421 7.60579 120.45 8.45456C117.253 9.30333 114.735 13.4623 113.914 16.7159C113.009 20.2241 114.367 21.4973 115.866 21.4973C117.139 21.4973 118.611 20.5919 119.912 18.47C120.167 20.0261 120.733 21.2426 121.864 21.2426C122.798 21.2426 123.562 20.4787 123.562 19.5451C123.562 19.4319 123.533 19.2905 123.505 19.1773C123.335 18.4134 123.024 13.8867 123.024 12.274ZM117.026 18.3002C115.329 18.3002 118.978 11.5667 120.591 11.0574C120.704 14.2828 118.328 18.3002 117.026 18.3002Z" fill="#C5292C"/>
<path d="M131.682 17.4798C130.438 18.4417 129.419 18.8944 128.429 18.8944C127.976 18.9227 127.524 18.753 127.184 18.47C130.749 16.8574 133.606 13.2643 133.606 10.916C133.606 9.44482 132.446 8.45459 130.947 8.45459C128.146 8.45459 124.609 11.5667 124.213 16.4613C123.987 19.2339 125.345 21.667 128.683 21.667C130.041 21.667 131.598 21.1295 133.21 19.8563C134.993 18.4983 133.55 16.0369 131.682 17.4798ZM130.042 11.0009C132.05 11.0009 128.372 15.4711 126.618 16.4047C126.788 14.0847 128.542 11.0009 130.042 11.0009Z" fill="#C5292C"/>
<path d="M97.8168 3.41857C96.77 6.2195 95.9212 8.56775 95.129 11.114C94.3652 13.5755 93.6013 16.2066 92.5262 19.5168C92.1867 18.4417 91.055 14.9335 90.0365 11.4253C89.0462 8.11508 87.9994 4.83318 87.6316 3.6732C86.7828 0.928857 83.5009 2.03225 84.4063 4.69172C86.5848 11.0858 88.4521 16.4613 90.5174 21.8368C91.3379 24.0153 93.7427 23.7607 94.3652 21.8651C95.4968 18.3851 96.4022 15.6408 97.3358 13.0945C98.3826 10.1804 99.288 7.37948 100.561 3.98441C101.325 1.8625 98.6373 1.24007 97.8168 3.41857Z" fill="#C5292C"/>
<path d="M149.478 14.8486C148.12 15.3013 141.273 18.5549 137.284 20.3939L139.802 18.5832C141.895 16.9139 145.234 13.9433 147.016 12.4155C149.336 10.4067 147.95 7.80386 145.234 8.59604C141.697 9.61456 139.887 10.1521 136.124 11.5667C134.228 12.274 135.02 14.8769 137.114 14.2262L143.706 11.6233L144.951 11.0575C140.396 14.8486 135.615 19.0642 134.483 19.9978C132.672 21.4407 134.115 24.2416 136.661 23.2231C140.764 21.5539 145.602 19.2905 150.666 17.6778C152.929 16.9139 152.109 13.9999 149.478 14.8486Z" fill="#C5292C"/>
<path d="M106.983 12.274C106.983 11.2555 107.011 10.5765 107.011 10.2087C107.011 9.19018 106.586 8.08679 104.917 8.34142C101.494 8.85068 98.7495 13.2643 97.8724 16.7159C96.9671 20.2241 98.3251 21.4973 99.8246 21.4973C101.098 21.4973 102.569 20.5919 103.87 18.47C104.125 20.0261 104.691 21.2427 105.823 21.2427C106.756 21.2427 107.52 20.4788 107.492 19.5451C107.492 19.432 107.463 19.2905 107.463 19.1773C107.294 18.4134 106.983 13.8867 106.983 12.274ZM101.126 18.3003C99.4285 18.3003 103.078 11.5667 104.691 11.0575C104.776 14.2828 102.399 18.3003 101.126 18.3003Z" fill="#C5292C"/>
<path d="M112.018 4.74833C112.103 2.40007 109.302 2.6547 109.132 5.201C108.991 7.32292 108.934 14.1979 109.104 19.2056C109.189 22.2612 112.527 22.2612 112.301 19.4603C111.877 14.7072 111.905 8.05851 112.018 4.74833Z" fill="#C5292C"/>
<path d="M150.977 20.1393C151.09 20.1393 151.203 20.111 151.288 20.0544C151.373 19.9979 151.402 19.913 151.402 19.7998C151.402 19.6866 151.373 19.6018 151.288 19.5452C151.203 19.4603 151.09 19.432 151.005 19.432H150.44V20.6203H150.666V20.1393L151.147 20.6203H151.458L150.949 20.1393H150.977ZM150.666 19.6583H150.977C151.034 19.6583 151.062 19.6866 151.09 19.7149C151.119 19.7432 151.147 19.7998 151.147 19.8281C151.147 19.8847 151.119 19.913 151.09 19.9413C151.062 19.9696 151.005 19.9979 150.977 19.9979H150.666V19.6583Z" fill="#C5292C"/>
<path d="M150.864 18.8944C150.553 18.8944 150.27 19.0076 150.072 19.2056C149.845 19.432 149.732 19.7149 149.761 20.0261C149.761 20.3373 149.874 20.6202 150.072 20.8466C150.524 21.271 151.232 21.271 151.684 20.8466C151.911 20.6202 152.024 20.3373 151.996 20.0261C151.996 19.7149 151.882 19.432 151.684 19.2056C151.458 18.9793 151.147 18.8661 150.864 18.8944ZM150.213 19.3754C150.383 19.2056 150.609 19.1207 150.836 19.1207C151.062 19.1207 151.288 19.2056 151.458 19.3754C151.798 19.7432 151.798 20.309 151.458 20.6768C151.119 21.0163 150.553 21.0163 150.185 20.6768C149.902 20.309 149.902 19.7432 150.213 19.3754Z" fill="#C5292C"/>
<path fill-rule="evenodd" clip-rule="evenodd" d="M22.9167 0H0V14.7072C1.47119 14.2545 3.08385 14.7638 3.76286 16.0935C4.07407 16.7159 4.27212 17.5647 4.24383 18.8944C4.216 20.0355 3.99652 21.861 3.36995 22.9167H2.47822C2.90932 22.4108 3.23372 21.7208 2.65946 21.6388C2.61702 21.6671 2.58165 21.6954 2.54629 21.7236C2.51092 21.7519 2.47556 21.7802 2.43312 21.8085C2.05869 22.2364 1.60842 22.6138 1.1062 22.9167H0V22.9685H1.01851C1.04791 22.9515 1.07714 22.9342 1.1062 22.9167H2.47822C2.4633 22.9342 2.44826 22.9515 2.43312 22.9685H3.33848C3.34908 22.9514 3.35957 22.9342 3.36995 22.9167H4.13431C4.12376 22.9336 4.11315 22.9508 4.10254 22.9685H10.242C10.247 22.9512 10.2521 22.934 10.2573 22.9167H19.4449C19.4423 22.9339 19.4397 22.9511 19.4371 22.9683L19.4371 22.9685H20.5971C20.6003 22.9512 20.6035 22.934 20.6067 22.9167H21.796C21.7924 22.934 21.7888 22.9513 21.7853 22.9685H22.9169V18.3852C22.9169 18.3854 22.9168 18.3857 22.9167 18.386V16.6033C22.9168 16.6031 22.9169 16.6029 22.917 16.6028V14.7638C22.9169 14.764 22.9168 14.7641 22.9167 14.7643V12.9254C22.9169 12.9252 22.917 12.925 22.9172 12.9248V11.6799C22.917 11.6799 22.9169 11.6799 22.9167 11.6799V10.9346C22.9264 10.9378 22.9361 10.9411 22.9458 10.9443V8.17168L22.9167 8.18683V6.84255C22.9169 6.84234 22.917 6.84214 22.9172 6.84194V0.0801071H22.9167V0ZM17.0607 0.0801071H15.6178C15.8442 0.108399 15.9573 0.306445 15.8159 0.419614C15.4349 0.785333 15.0047 0.830963 14.5916 0.874784C14.2377 0.912322 13.8963 0.948533 13.6091 1.1835C13.1847 1.5513 11.9398 3.33371 13.3545 3.33371C13.4272 3.33371 13.5152 3.30317 13.6185 3.26733C13.7964 3.2056 14.0196 3.12816 14.2881 3.16396C14.6559 3.22054 15.1369 3.53176 14.9105 3.81468C14.3261 4.59954 13.8401 4.3199 13.4353 4.08693C13.1543 3.9252 12.9124 3.78597 12.7037 4.04102C12.3359 4.60686 12.1945 5.34246 12.3642 5.99318C12.4252 6.19649 12.5629 6.35963 12.6789 6.49702C12.8857 6.74201 13.0234 6.90514 12.534 7.06828C12.0641 7.23173 11.8597 6.55418 11.6652 5.90932C11.5904 5.66122 11.517 5.41795 11.4306 5.22929C11.3592 5.06467 11.2762 4.9043 11.193 4.74365C10.8473 4.07602 10.499 3.40348 10.9779 2.40007C11.5437 1.2118 12.2793 0.61766 13.3827 0.532783C14.2397 0.588669 14.5691 0.399236 14.8477 0.239082C14.9922 0.156004 15.123 0.0808056 15.3066 0.0518154H8.68624C7.95064 1.74935 8.77111 4.35223 9.33696 5.14441C9.4407 5.2953 9.54758 5.50907 9.66703 5.74798C9.90595 6.2258 10.1952 6.80422 10.6101 7.18145C10.695 7.26633 10.7799 7.32291 10.893 7.3795C11.1052 7.49885 11.3174 7.61199 11.5289 7.72475C12.2196 8.09307 12.9026 8.45725 13.5525 9.02044C13.9769 9.38824 14.3447 9.84092 14.6559 10.3219L14.7408 10.4068C14.99 10.6093 15.5136 10.503 15.9765 10.4091C16.3543 10.3325 16.6916 10.264 16.8061 10.3785L16.8344 10.4068C17.0324 10.7746 16.0139 11.2555 15.4481 11.2272C14.4127 11.1611 14.6466 12.0385 14.8544 12.8175C14.9134 13.0389 14.9703 13.2524 14.9954 13.434C14.9954 13.4623 15.0237 13.4623 15.0237 13.4623C15.2217 13.5755 15.9856 12.557 16.0705 12.4155C16.7212 11.4536 17.3154 11.5667 17.9661 12.1043C18.0085 12.1467 18.058 12.1892 18.1075 12.2316C18.1571 12.274 18.2066 12.3165 18.249 12.3589C18.8997 13.0379 20.5124 15.3579 19.8899 15.6974C19.7768 15.754 19.6353 15.6691 19.4656 15.5276C19.149 15.2427 18.7439 14.6745 18.384 14.1697C18.1006 13.7721 17.8452 13.4138 17.6832 13.2643C17.669 13.2643 17.6619 13.2572 17.6549 13.2501C17.6478 13.2431 17.6407 13.236 17.6266 13.236C16.8743 12.6953 15.6531 14.7137 15.0345 15.7362C14.9086 15.9442 14.8077 16.111 14.7408 16.2067C13.6374 17.7627 12.7037 19.432 11.9398 21.2144C11.8481 21.4161 11.7564 21.7605 11.6493 22.1629C11.5912 22.3812 11.5285 22.6165 11.4589 22.8553H18.3339C18.6734 20.6485 19.409 18.5266 20.4558 16.5745C21.163 15.3016 22.0115 14.0569 22.9167 12.9254V11.6799C22.6622 11.68 22.4078 11.7366 22.1816 11.8497C22.0492 11.9312 21.8544 12.1851 21.6408 12.4635C21.2612 12.9582 20.8224 13.5302 20.569 13.3491L20.5407 13.3209C20.23 13.0102 20.7483 12.2733 21.1855 11.6518C21.2261 11.594 21.2661 11.5372 21.3046 11.4819C21.4743 11.2272 21.248 11.0009 20.9933 10.7463L20.8802 10.6331C20.7736 10.5443 20.6893 10.4444 20.6134 10.3543L20.6134 10.3542C20.5683 10.3008 20.5262 10.2508 20.4841 10.2087C20.3709 10.1238 20.2294 10.0955 20.1163 10.1238C19.6837 10.2536 19.1702 10.626 18.7407 10.9374C18.3276 11.237 17.9922 11.4802 17.8812 11.397C17.5585 11.1502 18.3696 10.1517 19.0065 9.36759C19.3188 8.98324 19.5892 8.65041 19.6636 8.48289C21.3041 8.1152 22.2942 7.54957 22.9167 6.84255V0.0801071H17.0607ZM17.0607 0.0801071C17.2871 0.0801071 17.7963 0.193276 17.6832 0.50449C17.6686 0.562689 17.5792 0.553546 17.3958 0.534781C17.2225 0.517056 16.9654 0.490748 16.6081 0.50449C16.4383 0.50449 16.608 0.0801071 17.0607 0.0801071ZM22.9167 8.18683L22.8408 8.22629C22.1939 8.56197 21.3049 9.02333 21.3049 9.58629C21.3049 9.95409 21.6727 10.3785 22.7195 10.8594C22.7696 10.8845 22.8419 10.9095 22.9167 10.9346V8.18683ZM22.9167 14.7643C22.7088 15.0951 22.4661 15.4637 22.2215 15.8354L22.2214 15.8356C21.7337 16.5765 21.238 17.3296 20.9932 17.8193C20.4556 18.9227 20.0312 20.0827 19.7483 21.271C19.6112 21.8195 19.5272 22.3681 19.4449 22.9167H20.6067C20.8896 21.4068 21.3111 19.9249 21.8985 18.4983C22.1814 17.8478 22.5207 17.1973 22.9167 16.6033V14.7643ZM22.9167 18.386C22.5252 19.6445 22.1061 21.4278 21.796 22.9167H22.9167V18.386ZM10.2573 22.9167C10.441 22.3003 10.6679 21.6777 10.8267 21.242L10.8267 21.2419L10.8267 21.2419C10.9115 21.0094 10.9768 20.8301 11.0058 20.7334C11.0194 20.6996 11.0313 20.6674 11.0427 20.6364L11.0427 20.6364L11.0428 20.6362C11.0792 20.5377 11.111 20.4517 11.1756 20.3656C11.4091 19.9142 11.771 19.3601 12.1201 18.8256L12.1201 18.8256L12.1201 18.8256C12.4055 18.3887 12.6822 17.9649 12.8731 17.6213C13.2409 16.914 13.2409 16.5179 12.2224 16.914C11.9678 17.0271 11.7697 17.2535 11.6566 17.5081C11.6218 17.5951 11.5763 17.6714 11.5333 17.7435C11.5063 17.7887 11.4803 17.8323 11.4585 17.8759C11.2888 18.1588 11.119 18.3569 10.6946 18.1022C10.5249 17.9891 10.6098 17.6213 10.8078 17.1969C11.2322 16.3764 12.1658 15.3579 12.7599 15.4711C12.9648 15.5176 13.136 15.6224 13.2886 15.7159C13.5995 15.9063 13.8333 16.0494 14.118 15.5559C14.2594 15.3013 14.3443 15.0467 14.4292 14.7638C14.5141 14.4808 12.7317 10.8594 12.477 10.718C12.477 10.718 10.4966 7.26633 10.0439 8.11509C10.0439 8.12924 10.0368 8.14339 10.0298 8.15753C10.0227 8.17168 10.0156 8.18583 10.0156 8.19997C9.59122 9.58629 8.9405 11.7082 8.2332 13.0945C8.19666 13.1493 8.17192 13.2041 8.14373 13.2666C8.12828 13.3008 8.11178 13.3374 8.09174 13.3774C7.97527 13.5716 7.71898 13.9355 7.41307 14.3698C6.82724 15.2016 6.05946 16.2917 5.74349 16.9423C5.57373 17.2818 5.51716 17.5081 5.7152 17.4798C6.8186 17.2818 7.41272 16.6028 7.80882 15.8389C7.95184 15.5687 8.06808 15.2896 8.17761 15.0267L8.17761 15.0267L8.17762 15.0267L8.17762 15.0267C8.26308 14.8215 8.34445 14.6261 8.43125 14.4525C8.51612 14.2262 8.68588 13.9999 8.91222 13.8584C9.59123 13.4906 8.68587 16.0369 8.45953 16.4896C8.51612 16.5179 8.51613 16.5462 8.48783 16.5462C7.71246 17.8441 6.84671 18.2382 6.16579 18.5481C5.70381 18.7584 5.32691 18.93 5.12106 19.3188C5.00789 19.5451 4.95131 19.7715 4.95131 20.0261C4.92302 20.9032 4.72497 21.7802 4.32888 22.5724C4.28813 22.6743 4.23271 22.7615 4.17318 22.8551L4.17316 22.8552L4.17314 22.8552L4.17312 22.8552L4.17309 22.8553L4.17307 22.8553L4.17305 22.8554C4.16029 22.8754 4.14734 22.8958 4.13431 22.9167H10.2573ZM15.9856 8.0868C15.3349 8.22826 15.25 7.719 15.8159 7.66242C16.5232 7.57754 16.3534 8.00192 15.9856 8.0868ZM17.768 7.83217C17.7345 7.85452 17.6789 7.7798 17.5978 7.67074C17.4735 7.50363 17.2892 7.25588 17.0324 7.15316C16.4482 6.93059 15.6178 7.09103 15.7516 7.15024C15.0176 6.87161 14.1454 7.07141 13.7788 7.97363C13.6657 8.25655 13.2696 6.07805 14.9388 6.19122C15.7027 6.19122 16.4383 6.16293 17.2022 6.04976C17.7397 6.02147 17.9661 7.69071 17.768 7.83217ZM18.5602 0.843997C20.088 0.136692 21.2197 2.03227 21.7289 3.13567C22.2382 4.21077 20.569 7.77559 20.088 6.95511C19.9718 6.83889 20.1357 6.59642 20.3351 6.30136C20.6698 5.8063 21.1045 5.1632 20.4841 4.72003C20.3313 4.60544 20.2129 4.93777 20.0721 5.33282C19.9001 5.81561 19.6947 6.3921 19.3524 6.36098C19.1125 6.34499 19.2071 5.91326 19.3244 5.37739C19.4147 4.96514 19.5184 4.49126 19.4938 4.0976C19.4672 3.83125 19.3152 3.61504 19.1735 3.41358C19.0143 3.18705 18.8681 2.97916 18.928 2.73957C19.1364 1.84205 18.8726 1.60731 18.6716 1.42844C18.5178 1.29157 18.4008 1.18741 18.5602 0.843997ZM16.3817 2.96591C16.608 2.6547 16.9758 2.51324 17.6266 2.79616C18.2207 2.76787 18.5885 2.88104 18.5885 3.13567C18.5885 3.27525 18.4095 3.24267 18.2178 3.20781C18.0211 3.172 17.811 3.13379 17.768 3.27713C17.7592 3.29478 17.8413 3.32896 17.9506 3.37451C18.1918 3.47495 18.5656 3.63067 18.3905 3.78638C18.0755 3.7016 17.9006 3.79831 17.7347 3.89003C17.5131 4.01255 17.3077 4.12616 16.8061 3.78638C15.976 3.83382 16.1797 3.4041 16.3174 3.11387C16.3439 3.05789 16.368 3.00709 16.3817 2.96591ZM3.6775 1.29667C4.55456 1.8908 5.74283 1.09862 6.30868 0.0801019H2.9419C3.05507 0.561069 3.30971 0.985453 3.6775 1.29667ZM0.0849327 13.8021C0.990283 13.4909 3.05561 13.7738 3.7912 14.2831C4.22982 14.5699 4.42702 15.0779 4.58673 15.4894C4.69487 15.7681 4.78582 16.0024 4.92289 16.0938C5.12094 16.207 5.40386 16.0372 5.96971 15.1884C6.78462 13.9347 7.50694 12.3724 8.18226 10.9117C8.42132 10.3946 8.65449 9.89023 8.8838 9.41682C9.56188 7.93238 9.06472 6.93466 8.53039 5.86231C8.23982 5.27917 7.93825 4.67397 7.8087 3.95643C7.52578 2.40036 7.4692 1.32526 7.837 0.0521067H7.1297C6.93165 0.533074 6.7053 1.01404 6.47896 1.46672C6.35582 1.68328 6.24798 1.88008 6.14902 2.06066C5.58863 3.08329 5.31322 3.58586 4.15902 4.21106C4.10222 4.2363 3.96802 4.32347 3.78875 4.43992L3.78873 4.43993L3.78869 4.43995L3.78868 4.43996C3.16415 4.84562 1.9927 5.60652 1.641 5.34275C1.40826 5.17348 1.5711 4.79852 1.71535 4.46635C1.76399 4.35435 1.81052 4.24722 1.83905 4.15448C1.64101 4.21106 1.44296 4.23935 1.21662 4.23935C1.07516 4.04131 1.78247 2.71157 1.89564 2.5984C2.03276 2.45407 2.17172 2.39809 2.28717 2.35159C2.6243 2.2158 2.76087 2.16078 2.06539 0.22186C2.06539 0.193567 2.05832 0.172348 2.05124 0.151129C2.04417 0.12991 2.0371 0.108691 2.0371 0.0803985H0.0283448V13.8304C0.056637 13.8021 0.0849327 13.8021 0.0849327 13.8021ZM7.24286 7.15345C8.68576 7.12516 6.39409 9.98267 5.82825 8.45489C5.65849 7.94563 6.42238 7.15345 7.24286 7.15345ZM1.35802 18.753C2.23508 18.6681 1.98044 20.1959 1.52777 20.4788C0.0565741 21.3841 0.792178 18.8095 1.35802 18.753Z" fill="#C5292C"/>
</svg>
