<svg width="14" height="14" viewBox="0 0 14 14" fill="none" xmlns="http://www.w3.org/2000/svg">
<path d="M7 0C7.62132 0 8.125 0.50368 8.125 1.125V5.875H12.875C13.4963 5.875 14 6.37868 14 7C14 7.62132 13.4963 8.125 12.875 8.125H8.125C8.125 8.125 8.125 12.2537 8.125 12.875C8.125 13.4963 7.62132 14 7 14C6.37868 14 5.875 13.4963 5.875 12.875C5.875 12.2537 5.875 8.125 5.875 8.125H1.125C0.50368 8.125 0 7.62132 0 7C0 6.37868 0.50368 5.875 1.125 5.875H5.875V1.125C5.875 0.50368 6.37868 0 7 0Z" fill="white"/>
</svg>
