<svg width="115" height="74" viewBox="0 0 115 74" fill="none" xmlns="http://www.w3.org/2000/svg">
<path d="M0.762609 35V0.995197H15.3516V6.12032H5.88774V15.4215H12.8026V20.5737H5.88774V29.8749H15.3516V35H0.762609ZM32.8489 35H18.8836V1.02231H24.0087V29.902H32.8489V35ZM48.048 35.4339C45.7882 35.4339 43.8629 34.6475 42.2721 33.0747C40.6993 31.4838 39.9129 29.5675 39.9129 27.3259V8.77779C39.9129 6.51804 40.7083 4.60177 42.2992 3.02898C43.89 1.43811 45.8063 0.642673 48.048 0.642673C50.3078 0.642673 52.224 1.43811 53.7968 3.02898C55.3696 4.61984 56.156 6.53612 56.156 8.77779V12.6555H50.8411V8.66933C50.8411 7.85581 50.5518 7.15981 49.9733 6.58131C49.3948 6.00281 48.6988 5.71356 47.8853 5.71356C47.0718 5.71356 46.3758 6.00281 45.7973 6.58131C45.2369 7.15981 44.9567 7.85581 44.9567 8.66933V27.2716C44.9567 28.0851 45.2369 28.7812 45.7973 29.3596C46.3758 29.9201 47.0718 30.2003 47.8853 30.2003C48.6988 30.2003 49.3948 29.9201 49.9733 29.3596C50.5518 28.7812 50.8411 28.0851 50.8411 27.2716V22.5804H56.156V27.3259C56.156 29.5856 55.3606 31.5019 53.7697 33.0747C52.1788 34.6475 50.2716 35.4339 48.048 35.4339ZM65.6673 27.1903L64.4199 35H59.0779L64.8538 1.02231H71.9042L77.5988 35H72.2296L71.0094 27.1903H65.6673ZM68.3519 8.80491L66.4537 22.2007H70.2501L68.3519 8.80491ZM87.022 35H81.8969V0.995197H96.4859V6.12032H87.022V15.4215H93.9369V20.5737H87.022V35ZM100.018 35V0.995197H114.607V6.12032H105.143V15.4215H112.058V20.5737H105.143V29.8749H114.607V35H100.018ZM5.88774 74H0.762609V40.0223H5.88774V74ZM26.5645 65.8649C26.5645 68.1066 25.7781 70.0228 24.2053 71.6137C22.6325 73.2046 20.7343 74 18.5107 74H10.457V39.9952H18.5107C20.7524 39.9952 22.6506 40.7906 24.2053 42.3815C25.7781 43.9724 26.5645 45.8796 26.5645 48.1032V65.8649ZM15.5821 68.9291H18.6734C19.4869 68.9291 20.1739 68.6399 20.7343 68.0614C21.2947 67.4648 21.575 66.7688 21.575 65.9733V48.1846C21.575 47.371 21.2857 46.675 20.7072 46.0965C20.1468 45.518 19.4689 45.2288 18.6734 45.2288H15.5821V68.9291ZM31.0761 74V39.9952H45.6651V45.1203H36.2012V54.4215H43.1161V59.5737H36.2012V68.8749H45.6651V74H31.0761ZM55.7865 66.1903L54.5391 74H49.1971L54.973 40.0223H62.0235L67.718 74H62.3489L61.1286 66.1903H55.7865ZM58.4711 47.8049L56.5729 61.2007H60.3693L58.4711 47.8049ZM85.9814 74H72.0161V40.0223H77.1412V68.902H85.9814V74Z" fill="white"/>
</svg>
