<svg width="233" height="230" viewBox="0 0 233 230" fill="none" xmlns="http://www.w3.org/2000/svg">
<path d="M35.6445 54.526C35.7192 59.4172 34.4497 63.599 31.836 67.0714C30.1185 69.4237 27.6916 71.0852 24.5552 72.056C22.875 72.5787 20.9148 72.8401 18.6745 72.8401C14.53 72.8401 11.095 71.8133 8.36932 69.7597C6.09172 68.0795 4.28084 65.8019 2.93669 62.9269C1.62987 60.0146 0.864448 56.6916 0.640422 52.9578L10.7216 52.2297C11.1696 56.2995 12.2524 59.2492 13.97 61.0787C15.2394 62.4602 16.6956 63.1136 18.3385 63.039C20.6534 62.9643 22.5016 61.8255 23.8831 59.6226C24.5925 58.5398 24.9472 56.9903 24.9472 54.974C24.9472 52.0617 23.6218 49.168 20.9708 46.293C18.8799 44.3141 15.7435 41.3458 11.5617 37.388C8.05195 33.9903 5.56899 30.9472 4.11282 28.2589C2.54464 25.2346 1.76055 21.9489 1.76055 18.4018C1.76055 12.017 3.90747 7.18182 8.2013 3.89611C10.8523 1.91721 14.138 0.927761 18.0584 0.927761C21.8295 0.927761 25.0593 1.76786 27.7476 3.44805C29.8385 4.75487 31.5187 6.58442 32.7881 8.93669C34.095 11.289 34.8791 13.9959 35.1404 17.0576L25.0032 18.9058C24.7045 16.0308 23.8831 13.7906 22.539 12.1851C21.5682 11.0276 20.168 10.4489 18.3385 10.4489C16.3969 10.4489 14.9221 11.3076 13.914 13.0252C13.0925 14.4067 12.6818 16.1242 12.6818 18.1778C12.6818 21.3888 14.0633 24.6558 16.8263 27.9789C17.8718 29.2484 19.4399 30.7419 21.5308 32.4594C23.9951 34.513 25.6193 35.9505 26.4034 36.7719C29.017 39.3856 31.0333 41.9619 32.4521 44.5008C33.1242 45.6956 33.6656 46.7971 34.0763 47.8052C35.0844 50.3068 35.6071 52.5471 35.6445 54.526ZM60.9734 0.927761C65.6406 0.927761 69.5984 2.57062 72.8468 5.85633C76.1325 9.14205 77.7754 13.0998 77.7754 17.7297V56.0381C77.7754 60.7054 76.1325 64.6818 72.8468 67.9675C69.5611 71.2159 65.6033 72.8401 60.9734 72.8401C56.3062 72.8401 52.3484 71.1972 49.1 67.9115C45.8517 64.6258 44.2275 60.668 44.2275 56.0381V17.7297C44.2275 13.0625 45.8703 9.10471 49.156 5.85633C52.4418 2.57062 56.3809 0.927761 60.9734 0.927761ZM66.7421 17.5057C66.7421 15.8255 66.1447 14.4067 64.9499 13.2492C63.7924 12.0544 62.3736 11.457 60.6934 11.457C59.0132 11.457 57.5757 12.0544 56.3809 13.2492C55.1861 14.4067 54.5887 15.8255 54.5887 17.5057V55.9261C54.5887 57.6063 55.1861 59.0438 56.3809 60.2386C57.5757 61.3961 59.0132 61.9748 60.6934 61.9748C62.3736 61.9748 63.7924 61.3961 64.9499 60.2386C66.1447 59.0438 66.7421 57.6063 66.7421 55.9261V17.5057ZM87.0444 72V1.76786H102.894C107.076 1.76786 110.847 2.86932 114.208 5.07224C117.083 6.93912 119.136 9.83279 120.368 13.7532C121.04 15.8442 121.376 18.3271 121.376 21.2021C121.376 25.9067 120.126 29.6778 117.624 32.5154C116.579 33.7102 115.346 34.625 113.928 35.2597C116.28 36.1558 118.277 37.9294 119.92 40.5804C121.003 42.3726 121.806 44.6875 122.329 47.5252C122.59 48.9813 122.721 50.6055 122.721 52.3977C122.721 56.8409 121.88 60.612 120.2 63.711C118.893 66.138 117.045 68.0795 114.656 69.5357C111.967 71.1786 109.298 72 106.647 72H87.0444ZM98.4698 61.5268H102.894C106.479 61.5268 108.962 59.6786 110.343 55.9821C110.829 54.7127 111.071 53.2565 111.071 51.6136C111.071 47.6932 110.324 44.8369 108.831 43.0446C107.487 41.4018 105.508 40.5804 102.894 40.5804H98.4698V61.5268ZM98.4698 30.4432H102.894C106.18 30.4432 108.383 28.8377 109.503 25.6266C109.914 24.4318 110.119 22.957 110.119 21.2021C110.119 18.2898 109.41 16.0869 107.991 14.5933C106.684 13.2119 104.985 12.5211 102.894 12.5211H98.4698V30.4432ZM148.631 1.82386C154.53 1.82386 158.861 3.44805 161.624 6.69643C164.051 9.53409 165.265 13.4919 165.265 18.5698V28.763C165.265 33.7289 163.379 37.9294 159.608 41.3644L167.449 72H156.023L149.583 45.5089C149.284 45.5463 148.967 45.5649 148.631 45.5649H142.526V72H131.941V1.82386H148.631ZM154.959 18.7378C154.959 14.668 152.943 12.6331 148.911 12.6331H142.526V35.0917H148.911C150.591 35.0917 152.01 34.4943 153.167 33.2995C154.362 32.1047 154.959 30.6672 154.959 28.987V18.7378ZM176.529 72V1.76786H206.66V12.3531H187.114V31.5633H201.396V42.2045H187.114V61.4148H206.66V72H176.529ZM23.9391 135.094C23.9391 139.761 22.2963 143.719 19.0106 146.968C15.7622 150.179 11.8231 151.784 7.19318 151.784C4.50487 151.784 2.32062 151.504 0.640422 150.944L2.1526 141.087C3.3474 141.311 4.37419 141.423 5.23295 141.423C5.75568 141.46 6.50243 141.442 7.47321 141.367C9.19075 141.255 10.6282 140.639 11.7857 139.519C12.9805 138.399 13.5779 136.998 13.5779 135.318V80.9359H23.9391V135.094ZM49.9611 151.784C45.2939 151.784 41.3361 150.16 38.0878 146.912C34.8394 143.663 33.2152 139.724 33.2152 135.094V80.8239H43.5764V134.982C43.5764 136.662 44.1738 138.1 45.3686 139.295C46.5634 140.452 48.0009 141.031 49.6811 141.031C51.3613 141.031 52.7801 140.452 53.9376 139.295C55.1324 138.1 55.7298 136.662 55.7298 134.982V80.8239H66.7631V135.094C66.7631 139.799 65.1202 143.756 61.8345 146.968C58.5488 150.179 54.591 151.784 49.9611 151.784ZM87.6395 134.87L85.0632 151H74.0299L85.9593 80.8239H100.521L112.282 151H101.193L98.6728 134.87H87.6395ZM93.1841 96.8977L89.2637 124.565H97.1046L93.1841 96.8977ZM133.089 80.7679L147.09 127.925V80.7679H157.676V151H146.306L131.745 106.027V151H121.159V80.7679H133.089ZM13.1859 230L0.640422 159.824H11.7297L20.5227 214.43L29.4278 159.824H40.517L27.7476 230H13.1859ZM51.8304 213.87L49.2541 230H38.2208L50.1502 159.824H64.7118L76.4732 230H65.3839L62.8636 213.87H51.8304ZM57.375 175.898L53.4545 203.565H61.2954L57.375 175.898ZM114.194 230H85.3502V159.824H95.9355V219.471H114.194V230ZM154.735 213.198C154.735 217.828 153.111 221.786 149.863 225.071C146.614 228.357 142.694 230 138.101 230H121.467V159.768H138.101C142.731 159.768 146.652 161.411 149.863 164.696C153.111 167.982 154.735 171.921 154.735 176.514V213.198ZM132.053 219.527H138.437C140.118 219.527 141.536 218.929 142.694 217.735C143.851 216.502 144.43 215.065 144.43 213.422V176.682C144.43 175.002 143.833 173.564 142.638 172.369C141.48 171.175 140.08 170.577 138.437 170.577H132.053V219.527ZM164.053 230V159.768H194.185V170.353H174.639V189.563H188.92V200.205H174.639V219.415H194.185V230H164.053ZM232.395 159.824V170.409L212.905 219.471H232.395V230H201.48V219.471L221.026 170.409H201.48V159.824H232.395Z" fill="white"/>
</svg>
