<svg class="section__showcasePromo__product__letters" width="152" height="116" viewBox="0 0 152 116" fill="none" xmlns="http://www.w3.org/2000/svg">
<path d="M8.61113 35.48C6.08313 35.48 4.14713 34.76 2.80313 33.32C1.49113 31.88 0.835125 29.848 0.835125 27.224V9.176C0.835125 6.552 1.49113 4.52 2.80313 3.08C4.14713 1.64 6.08313 0.919998 8.61113 0.919998C11.1391 0.919998 13.0591 1.64 14.3711 3.08C15.7151 4.52 16.3871 6.552 16.3871 9.176V12.728H11.3951V8.84C11.3951 6.76 10.5151 5.72 8.75513 5.72C6.99513 5.72 6.11513 6.76 6.11513 8.84V27.608C6.11513 29.656 6.99513 30.68 8.75513 30.68C10.5151 30.68 11.3951 29.656 11.3951 27.608V22.472H16.3871V27.224C16.3871 29.848 15.7151 31.88 14.3711 33.32C13.0591 34.76 11.1391 35.48 8.61113 35.48ZM27.2719 35.48C24.6799 35.48 22.6959 34.744 21.3199 33.272C19.9439 31.8 19.2559 29.72 19.2559 27.032V9.368C19.2559 6.68 19.9439 4.6 21.3199 3.128C22.6959 1.656 24.6799 0.919998 27.2719 0.919998C29.8639 0.919998 31.8479 1.656 33.2239 3.128C34.5999 4.6 35.2879 6.68 35.2879 9.368V27.032C35.2879 29.72 34.5999 31.8 33.2239 33.272C31.8479 34.744 29.8639 35.48 27.2719 35.48ZM27.2719 30.68C29.0959 30.68 30.0079 29.576 30.0079 27.368V9.032C30.0079 6.824 29.0959 5.72 27.2719 5.72C25.4479 5.72 24.5359 6.824 24.5359 9.032V27.368C24.5359 29.576 25.4479 30.68 27.2719 30.68ZM38.8586 1.4H46.3946L49.7546 25.448H49.8506L53.2106 1.4H60.7466V35H55.7546V9.56H55.6586L51.8186 35H47.4026L43.5626 9.56H43.4666V35H38.8586V1.4ZM64.6868 1.4H72.4628C75.0868 1.4 77.0548 2.104 78.3668 3.512C79.6788 4.92 80.3348 6.984 80.3348 9.704V13.016C80.3348 15.736 79.6788 17.8 78.3668 19.208C77.0548 20.616 75.0868 21.32 72.4628 21.32H69.9668V35H64.6868V1.4ZM72.4628 16.52C73.3268 16.52 73.9668 16.28 74.3828 15.8C74.8308 15.32 75.0547 14.504 75.0547 13.352V9.368C75.0547 8.216 74.8308 7.4 74.3828 6.92C73.9668 6.44 73.3268 6.2 72.4628 6.2H69.9668V16.52H72.4628ZM85.5949 1.4H92.7469L98.2189 35H92.9389L91.9789 28.328V28.424H85.9789L85.0189 35H80.1229L85.5949 1.4ZM91.3549 23.864L89.0029 7.256H88.9069L86.6029 23.864H91.3549ZM100.781 1.4H108.605C111.325 1.4 113.309 2.04 114.557 3.32C115.805 4.568 116.429 6.504 116.429 9.128V11.192C116.429 14.68 115.277 16.888 112.973 17.816V17.912C114.253 18.296 115.149 19.08 115.661 20.264C116.205 21.448 116.477 23.032 116.477 25.016V30.92C116.477 31.88 116.509 32.664 116.573 33.272C116.637 33.848 116.797 34.424 117.053 35H111.677C111.485 34.456 111.357 33.944 111.293 33.464C111.229 32.984 111.197 32.12 111.197 30.872V24.728C111.197 23.192 110.941 22.12 110.429 21.512C109.949 20.904 109.101 20.6 107.885 20.6H106.061V35H100.781V1.4ZM107.981 15.8C109.037 15.8 109.821 15.528 110.333 14.984C110.877 14.44 111.148 13.528 111.148 12.248V9.656C111.148 8.44 110.925 7.56 110.477 7.016C110.061 6.472 109.389 6.2 108.461 6.2H106.061V15.8H107.981ZM124.174 6.2H118.654V1.4H134.974V6.2H129.454V35H124.174V6.2ZM137.531 1.4H151.931V6.2H142.811V15.08H150.059V19.88H142.811V30.2H151.931V35H137.531V1.4ZM41.8924 75.48C39.3644 75.48 37.4284 74.76 36.0844 73.32C34.7724 71.88 34.1164 69.848 34.1164 67.224V49.176C34.1164 46.552 34.7724 44.52 36.0844 43.08C37.4284 41.64 39.3644 40.92 41.8924 40.92C44.4204 40.92 46.3404 41.64 47.6524 43.08C48.9964 44.52 49.6684 46.552 49.6684 49.176V52.728H44.6764V48.84C44.6764 46.76 43.7964 45.72 42.0364 45.72C40.2764 45.72 39.3964 46.76 39.3964 48.84V67.608C39.3964 69.656 40.2764 70.68 42.0364 70.68C43.7964 70.68 44.6764 69.656 44.6764 67.608V62.472H49.6684V67.224C49.6684 69.848 48.9964 71.88 47.6524 73.32C46.3404 74.76 44.4204 75.48 41.8924 75.48ZM60.5531 75.48C57.9611 75.48 55.9771 74.744 54.6011 73.272C53.2251 71.8 52.5371 69.72 52.5371 67.032V49.368C52.5371 46.68 53.2251 44.6 54.6011 43.128C55.9771 41.656 57.9611 40.92 60.5531 40.92C63.1451 40.92 65.1291 41.656 66.5051 43.128C67.8811 44.6 68.5691 46.68 68.5691 49.368V67.032C68.5691 69.72 67.8811 71.8 66.5051 73.272C65.1291 74.744 63.1451 75.48 60.5531 75.48ZM60.5531 70.68C62.3771 70.68 63.2891 69.576 63.2891 67.368V49.032C63.2891 46.824 62.3771 45.72 60.5531 45.72C58.7291 45.72 57.8171 46.824 57.8171 49.032V67.368C57.8171 69.576 58.7291 70.68 60.5531 70.68ZM72.1399 41.4H78.7639L83.8999 61.512H83.9959V41.4H88.6999V75H83.2759L76.9399 50.472H76.8439V75H72.1399V41.4ZM104.44 46.2H98.9198V41.4H115.24V46.2H109.72V75H104.44V46.2ZM125.476 75.48C122.916 75.48 120.964 74.76 119.62 73.32C118.276 71.848 117.604 69.752 117.604 67.032V41.4H122.884V67.416C122.884 68.568 123.108 69.4 123.556 69.912C124.036 70.424 124.708 70.68 125.572 70.68C126.436 70.68 127.092 70.424 127.54 69.912C128.02 69.4 128.26 68.568 128.26 67.416V41.4H133.348V67.032C133.348 69.752 132.676 71.848 131.332 73.32C129.988 74.76 128.036 75.48 125.476 75.48ZM143.973 75.48C141.413 75.48 139.477 74.76 138.165 73.32C136.853 71.848 136.197 69.752 136.197 67.032V65.112H141.189V67.416C141.189 69.592 142.101 70.68 143.925 70.68C144.821 70.68 145.493 70.424 145.941 69.912C146.421 69.368 146.661 68.504 146.661 67.32C146.661 65.912 146.341 64.68 145.701 63.624C145.061 62.536 143.877 61.24 142.149 59.736C139.973 57.816 138.453 56.088 137.589 54.552C136.725 52.984 136.293 51.224 136.293 49.272C136.293 46.616 136.965 44.568 138.309 43.128C139.653 41.656 141.605 40.92 144.165 40.92C146.693 40.92 148.597 41.656 149.877 43.128C151.189 44.568 151.845 46.648 151.845 49.368V50.76H146.853V49.032C146.853 47.88 146.629 47.048 146.181 46.536C145.733 45.992 145.077 45.72 144.213 45.72C142.453 45.72 141.573 46.792 141.573 48.936C141.573 50.152 141.893 51.288 142.533 52.344C143.205 53.4 144.405 54.68 146.133 56.184C148.341 58.104 149.861 59.848 150.693 61.416C151.525 62.984 151.941 64.824 151.941 66.936C151.941 69.688 151.253 71.8 149.877 73.272C148.533 74.744 146.565 75.48 143.973 75.48ZM48.8918 81.4H56.0438L61.5158 115H56.2358L55.2758 108.328V108.424H49.2758L48.3158 115H43.4198L48.8918 81.4ZM54.6518 103.864L52.2998 87.256H52.2038L49.8997 103.864H54.6518ZM64.0774 81.4H71.6134L74.9734 105.448H75.0694L78.4294 81.4H85.9654V115H80.9734V89.56H80.8774L77.0374 115H72.6214L68.7814 89.56H68.6854V115H64.0774V81.4ZM89.9055 81.4H95.1855V115H89.9055V81.4ZM106.628 115.48C104.068 115.48 102.116 114.76 100.772 113.32C99.4279 111.848 98.7559 109.752 98.7559 107.032V89.368C98.7559 86.648 99.4279 84.568 100.772 83.128C102.116 81.656 104.068 80.92 106.628 80.92C109.188 80.92 111.14 81.656 112.484 83.128C113.828 84.568 114.5 86.648 114.5 89.368V92.248H109.508V89.032C109.508 86.824 108.596 85.72 106.772 85.72C104.948 85.72 104.036 86.824 104.036 89.032V107.416C104.036 109.592 104.948 110.68 106.772 110.68C108.596 110.68 109.508 109.592 109.508 107.416V100.84H106.868V96.04H114.5V107.032C114.5 109.752 113.828 111.848 112.484 113.32C111.14 114.76 109.188 115.48 106.628 115.48ZM125.522 115.48C122.93 115.48 120.946 114.744 119.57 113.272C118.194 111.8 117.506 109.72 117.506 107.032V89.368C117.506 86.68 118.194 84.6 119.57 83.128C120.946 81.656 122.93 80.92 125.522 80.92C128.114 80.92 130.098 81.656 131.474 83.128C132.85 84.6 133.538 86.68 133.538 89.368V107.032C133.538 109.72 132.85 111.8 131.474 113.272C130.098 114.744 128.114 115.48 125.522 115.48ZM125.522 110.68C127.346 110.68 128.258 109.576 128.258 107.368V89.032C128.258 86.824 127.346 85.72 125.522 85.72C123.698 85.72 122.786 86.824 122.786 89.032V107.368C122.786 109.576 123.698 110.68 125.522 110.68ZM143.973 115.48C141.413 115.48 139.477 114.76 138.165 113.32C136.853 111.848 136.197 109.752 136.197 107.032V105.112H141.189V107.416C141.189 109.592 142.101 110.68 143.925 110.68C144.821 110.68 145.493 110.424 145.941 109.912C146.421 109.368 146.661 108.504 146.661 107.32C146.661 105.912 146.341 104.68 145.701 103.624C145.061 102.536 143.877 101.24 142.149 99.736C139.973 97.816 138.453 96.088 137.589 94.552C136.725 92.984 136.293 91.224 136.293 89.272C136.293 86.616 136.965 84.568 138.309 83.128C139.653 81.656 141.605 80.92 144.165 80.92C146.693 80.92 148.597 81.656 149.877 83.128C151.189 84.568 151.845 86.648 151.845 89.368V90.76H146.853V89.032C146.853 87.88 146.629 87.048 146.181 86.536C145.733 85.992 145.077 85.72 144.213 85.72C142.453 85.72 141.573 86.792 141.573 88.936C141.573 90.152 141.893 91.288 142.533 92.344C143.205 93.4 144.405 94.68 146.133 96.184C148.341 98.104 149.861 99.848 150.693 101.416C151.525 102.984 151.941 104.824 151.941 106.936C151.941 109.688 151.253 111.8 149.877 113.272C148.533 114.744 146.565 115.48 143.973 115.48Z" fill="#D70021"/>
</svg>
