<svg class="section__showcasePromo__product__letters" width="123" height="36" viewBox="0 0 123 36" fill="none" xmlns="http://www.w3.org/2000/svg">
<path d="M0.302717 1.4H8.12672C10.8467 1.4 12.8307 2.04 14.0787 3.32C15.3267 4.568 15.9507 6.504 15.9507 9.128V11.192C15.9507 14.68 14.7987 16.888 12.4947 17.816V17.912C13.7747 18.296 14.6707 19.08 15.1827 20.264C15.7267 21.448 15.9987 23.032 15.9987 25.016V30.92C15.9987 31.88 16.0307 32.664 16.0947 33.272C16.1587 33.848 16.3187 34.424 16.5747 35H11.1987C11.0067 34.456 10.8787 33.944 10.8147 33.464C10.7507 32.984 10.7187 32.12 10.7187 30.872V24.728C10.7187 23.192 10.4627 22.12 9.95072 21.512C9.47072 20.904 8.62272 20.6 7.40672 20.6H5.58272V35H0.302717V1.4ZM7.50272 15.8C8.55872 15.8 9.34272 15.528 9.85472 14.984C10.3987 14.44 10.6707 13.528 10.6707 12.248V9.656C10.6707 8.44 10.4467 7.56 9.99872 7.016C9.58272 6.472 8.91072 6.2 7.98272 6.2H5.58272V15.8H7.50272ZM19.6621 1.4H34.0621V6.2H24.9421V15.08H32.1901V19.88H24.9421V30.2H34.0621V35H19.6621V1.4ZM44.5396 35.48C42.0116 35.48 40.0756 34.76 38.7316 33.32C37.4196 31.88 36.7636 29.848 36.7636 27.224V9.176C36.7636 6.552 37.4196 4.52 38.7316 3.08C40.0756 1.64 42.0116 0.919998 44.5396 0.919998C47.0676 0.919998 48.9876 1.64 50.2996 3.08C51.6436 4.52 52.3156 6.552 52.3156 9.176V12.728H47.3236V8.84C47.3236 6.76 46.4436 5.72 44.6836 5.72C42.9236 5.72 42.0436 6.76 42.0436 8.84V27.608C42.0436 29.656 42.9236 30.68 44.6836 30.68C46.4436 30.68 47.3236 29.656 47.3236 27.608V22.472H52.3156V27.224C52.3156 29.848 51.6436 31.88 50.2996 33.32C48.9876 34.76 47.0676 35.48 44.5396 35.48ZM55.4746 1.4H69.8746V6.2H60.7546V15.08H68.0026V19.88H60.7546V30.2H69.8746V35H55.4746V1.4ZM77.0401 6.2H71.5201V1.4H87.8401V6.2H82.3201V35H77.0401V6.2ZM92.2733 1.4H99.4253L104.897 35H99.6173L98.6573 28.328V28.424H92.6573L91.6973 35H86.8013L92.2733 1.4ZM98.0333 23.864L95.6813 7.256H95.5853L93.2813 23.864H98.0333ZM114.182 35.48C111.622 35.48 109.686 34.76 108.374 33.32C107.062 31.848 106.406 29.752 106.406 27.032V25.112H111.398V27.416C111.398 29.592 112.31 30.68 114.134 30.68C115.03 30.68 115.702 30.424 116.15 29.912C116.63 29.368 116.87 28.504 116.87 27.32C116.87 25.912 116.55 24.68 115.91 23.624C115.27 22.536 114.086 21.24 112.358 19.736C110.182 17.816 108.662 16.088 107.798 14.552C106.934 12.984 106.502 11.224 106.502 9.272C106.502 6.616 107.174 4.568 108.518 3.128C109.862 1.656 111.814 0.919998 114.374 0.919998C116.902 0.919998 118.806 1.656 120.086 3.128C121.398 4.568 122.054 6.648 122.054 9.368V10.76H117.062V9.032C117.062 7.88 116.838 7.048 116.39 6.536C115.942 5.992 115.286 5.72 114.422 5.72C112.662 5.72 111.782 6.792 111.782 8.936C111.782 10.152 112.102 11.288 112.742 12.344C113.414 13.4 114.614 14.68 116.342 16.184C118.55 18.104 120.07 19.848 120.902 21.416C121.734 22.984 122.15 24.824 122.15 26.936C122.15 29.688 121.462 31.8 120.086 33.272C118.742 34.744 116.774 35.48 114.182 35.48Z" fill="white"/>
</svg>
