<svg class="section__showcasePromo__product__letters2" width="164" height="28" viewBox="0 0 164 28" fill="none" xmlns="http://www.w3.org/2000/svg">
<path fill-rule="evenodd" clip-rule="evenodd" d="M163.161 0.383545H0V28H163.161V0.383545ZM13.3298 6.54891L16.7027 16.7439V24.3014H19.4924V16.7439L22.8654 6.54891H20.1518L18.2497 13.0666H18.199L16.297 6.54891H13.3298ZM32.2922 6.54891H28.1838V24.3014H30.9735V17.0736H32.2922C33.6786 17.0736 34.7184 16.7016 35.4116 15.9577C36.1048 15.2138 36.4514 14.1233 36.4514 12.6862V10.9363C36.4514 9.4992 36.1048 8.40869 35.4116 7.66478C34.7184 6.92086 33.6786 6.54891 32.2922 6.54891ZM33.3066 14.1571C33.0869 14.4107 32.7487 14.5375 32.2922 14.5375H30.9735V9.08497H32.2922C32.7487 9.08497 33.0869 9.21178 33.3066 9.46538C33.5433 9.71899 33.6617 10.1501 33.6617 10.7588V12.8637C33.6617 13.4724 33.5433 13.9035 33.3066 14.1571ZM42.1003 6.54891H37.9665V24.3014H40.7561V16.6932H41.7198C42.3623 16.6932 42.8104 16.8538 43.064 17.175C43.3345 17.4963 43.4697 18.0626 43.4697 18.8742V22.1204C43.4697 22.7797 43.4866 23.2362 43.5205 23.4898C43.5543 23.7434 43.6219 24.0139 43.7233 24.3014H46.5637C46.4285 23.997 46.3439 23.6927 46.3101 23.3884C46.2763 23.0672 46.2594 22.6529 46.2594 22.1457V19.0264C46.2594 17.9781 46.1157 17.1412 45.8283 16.5156C45.5578 15.8901 45.0844 15.4759 44.4081 15.273V15.2223C45.6254 14.7319 46.234 13.5654 46.234 11.7225V10.632C46.234 9.24559 45.9044 8.22271 45.245 7.56333C44.5856 6.88705 43.5374 6.54891 42.1003 6.54891ZM43.0132 13.726C42.7427 14.0134 42.3285 14.1571 41.7706 14.1571H40.7561V9.08497H42.0242C42.5145 9.08497 42.8695 9.22868 43.0893 9.51611C43.326 9.80353 43.4444 10.2685 43.4444 10.9109V12.2804C43.4444 12.9567 43.3007 13.4386 43.0132 13.726ZM55.8031 6.54891H48.1949V24.3014H55.8031V21.7653H50.9846V16.3128H54.8141V13.7767H50.9846V9.08497H55.8031V6.54891ZM61.5164 6.54891H57.408V24.3014H60.1977V17.0736H61.5164C62.9028 17.0736 63.9426 16.7016 64.6358 15.9577C65.329 15.2138 65.6756 14.1233 65.6756 12.6862V10.9363C65.6756 9.4992 65.329 8.40869 64.6358 7.66478C63.9426 6.92086 62.9028 6.54891 61.5164 6.54891ZM62.5308 14.1571C62.3111 14.4107 61.9729 14.5375 61.5164 14.5375H60.1977V9.08497H61.5164C61.9729 9.08497 62.3111 9.21178 62.5308 9.46538C62.7675 9.71899 62.8859 10.1501 62.8859 10.7588V12.8637C62.8859 13.4724 62.7675 13.9035 62.5308 14.1571ZM72.2335 6.54891H68.4547L65.5636 24.3014H68.1504L68.6576 20.827H71.8277V20.7762L72.3349 24.3014H75.1246L72.2335 6.54891ZM70.2553 9.64291L71.498 18.4177H68.9873L70.2046 9.64291H70.2553ZM80.6118 6.54891H76.478V24.3014H79.2677V16.6932H80.2314C80.8739 16.6932 81.3219 16.8538 81.5755 17.175C81.846 17.4963 81.9813 18.0626 81.9813 18.8742V22.1204C81.9813 22.7797 81.9982 23.2362 82.032 23.4898C82.0658 23.7434 82.1334 24.0139 82.2349 24.3014H85.0753C84.94 23.997 84.8555 23.6927 84.8217 23.3884C84.7879 23.0672 84.771 22.6529 84.771 22.1457V19.0264C84.771 17.9781 84.6272 17.1412 84.3398 16.5156C84.0693 15.8901 83.5959 15.4759 82.9196 15.273V15.2223C84.1369 14.7319 84.7456 13.5654 84.7456 11.7225V10.632C84.7456 9.24559 84.4159 8.22271 83.7565 7.56333C83.0972 6.88705 82.0489 6.54891 80.6118 6.54891ZM81.5248 13.726C81.2543 14.0134 80.84 14.1571 80.2821 14.1571H79.2677V9.08497H80.5357C81.026 9.08497 81.3811 9.22868 81.6009 9.51611C81.8376 9.80353 81.9559 10.2685 81.9559 10.9109V12.2804C81.9559 12.9567 81.8122 13.4386 81.5248 13.726ZM92.6409 6.54891H88.8621L85.971 24.3014H88.5578L89.065 20.827H92.2351V20.7762L92.7423 24.3014H95.532L92.6409 6.54891ZM90.6627 9.64291L91.9054 18.4177H89.3947L90.612 9.64291H90.6627ZM97.6982 23.4137C98.4082 24.1746 99.4311 24.555 100.767 24.555C102.102 24.555 103.117 24.1746 103.81 23.4137C104.52 22.6529 104.875 21.5793 104.875 20.1929V17.6822H102.238V20.3958C102.238 21.4779 101.773 22.0189 100.843 22.0189C99.913 22.0189 99.448 21.4779 99.448 20.3958V10.4798C99.448 9.38085 99.913 8.83137 100.843 8.83137C101.773 8.83137 102.238 9.38085 102.238 10.4798V12.534H104.875V10.6573C104.875 9.27095 104.52 8.19735 103.81 7.43653C103.117 6.67571 102.102 6.2953 100.767 6.2953C99.4311 6.2953 98.4082 6.67571 97.6982 7.43653C97.005 8.19735 96.6584 9.27095 96.6584 10.6573V20.1929C96.6584 21.5793 97.005 22.6529 97.6982 23.4137ZM109.334 6.54891H106.544V24.3014H109.334V6.54891ZM112.311 23.3884C113.038 24.1661 114.086 24.555 115.456 24.555C116.825 24.555 117.873 24.1661 118.6 23.3884C119.327 22.6107 119.691 21.5117 119.691 20.0915V10.7588C119.691 9.33858 119.327 8.23962 118.6 7.46189C117.873 6.68416 116.825 6.2953 115.456 6.2953C114.086 6.2953 113.038 6.68416 112.311 7.46189C111.584 8.23962 111.22 9.33858 111.22 10.7588V20.0915C111.22 21.5117 111.584 22.6107 112.311 23.3884ZM116.901 20.269C116.901 21.4356 116.419 22.0189 115.456 22.0189C114.492 22.0189 114.01 21.4356 114.01 20.269V10.5813C114.01 9.41466 114.492 8.83137 115.456 8.83137C116.419 8.83137 116.901 9.41466 116.901 10.5813V20.269ZM125.077 6.54891H121.577V24.3014H124.063V11.3421H124.113L127.461 24.3014H130.327V6.54891H127.841V17.175H127.791L125.077 6.54891ZM140.008 6.54891H132.4V24.3014H140.008V21.7653H135.19V16.3128H139.019V13.7767H135.19V9.08497H140.008V6.54891ZM142.221 23.4137C142.914 24.1746 143.937 24.555 145.289 24.555C146.659 24.555 147.699 24.1661 148.409 23.3884C149.136 22.6107 149.499 21.4948 149.499 20.0408C149.499 18.9249 149.279 17.9528 148.84 17.1243C148.4 16.2959 147.597 15.3744 146.431 14.36C145.518 13.5654 144.884 12.8891 144.529 12.3311C144.19 11.7732 144.021 11.173 144.021 10.5305C144.021 9.39776 144.486 8.83137 145.416 8.83137C145.873 8.83137 146.219 8.97508 146.456 9.2625C146.693 9.53301 146.811 9.9726 146.811 10.5813V11.4942H149.449V10.7588C149.449 9.32167 149.102 8.22271 148.409 7.46189C147.732 6.68416 146.727 6.2953 145.391 6.2953C144.038 6.2953 143.007 6.68416 142.297 7.46189C141.587 8.22271 141.232 9.30477 141.232 10.7081C141.232 11.7394 141.46 12.6693 141.916 13.4977C142.373 14.3093 143.176 15.2223 144.326 16.2367C145.239 17.0313 145.864 17.7161 146.202 18.2909C146.541 18.8488 146.71 19.4998 146.71 20.2437C146.71 20.8692 146.583 21.3257 146.329 21.6131C146.092 21.8837 145.737 22.0189 145.264 22.0189C144.3 22.0189 143.818 21.4441 143.818 20.2944V19.0771H141.181V20.0915C141.181 21.5286 141.528 22.636 142.221 23.4137Z" fill="#D70021"/>
</svg>
