<svg class="section__showcasePromo__product__letters" width="156" height="36" viewBox="0 0 156 36" fill="none" xmlns="http://www.w3.org/2000/svg">
<path d="M8.408 35.48C5.88 35.48 3.944 34.76 2.6 33.32C1.288 31.88 0.632 29.848 0.632 27.224V9.176C0.632 6.552 1.288 4.52 2.6 3.08C3.944 1.64 5.88 0.919998 8.408 0.919998C10.936 0.919998 12.856 1.64 14.168 3.08C15.512 4.52 16.184 6.552 16.184 9.176V12.728H11.192V8.84C11.192 6.76 10.312 5.72 8.552 5.72C6.792 5.72 5.912 6.76 5.912 8.84V27.608C5.912 29.656 6.792 30.68 8.552 30.68C10.312 30.68 11.192 29.656 11.192 27.608V22.472H16.184V27.224C16.184 29.848 15.512 31.88 14.168 33.32C12.856 34.76 10.936 35.48 8.408 35.48ZM27.0688 35.48C24.4768 35.48 22.4928 34.744 21.1168 33.272C19.7408 31.8 19.0527 29.72 19.0527 27.032V9.368C19.0527 6.68 19.7408 4.6 21.1168 3.128C22.4928 1.656 24.4768 0.919998 27.0688 0.919998C29.6608 0.919998 31.6448 1.656 33.0208 3.128C34.3968 4.6 35.0848 6.68 35.0848 9.368V27.032C35.0848 29.72 34.3968 31.8 33.0208 33.272C31.6448 34.744 29.6608 35.48 27.0688 35.48ZM27.0688 30.68C28.8928 30.68 29.8047 29.576 29.8047 27.368V9.032C29.8047 6.824 28.8928 5.72 27.0688 5.72C25.2448 5.72 24.3328 6.824 24.3328 9.032V27.368C24.3328 29.576 25.2448 30.68 27.0688 30.68ZM38.6555 1.4H45.2795L50.4155 21.512H50.5115V1.4H55.2155V35H49.7915L43.4555 10.472H43.3595V35H38.6555V1.4ZM66.7719 35.48C64.1799 35.48 62.1959 34.744 60.8199 33.272C59.4439 31.8 58.7559 29.72 58.7559 27.032V9.368C58.7559 6.68 59.4439 4.6 60.8199 3.128C62.1959 1.656 64.1799 0.919998 66.7719 0.919998C69.3639 0.919998 71.3479 1.656 72.7239 3.128C74.0999 4.6 74.7879 6.68 74.7879 9.368V27.032C74.7879 29.72 74.0999 31.8 72.7239 33.272C71.3479 34.744 69.3639 35.48 66.7719 35.48ZM66.7719 30.68C68.5959 30.68 69.5079 29.576 69.5079 27.368V9.032C69.5079 6.824 68.5959 5.72 66.7719 5.72C64.9479 5.72 64.0359 6.824 64.0359 9.032V27.368C64.0359 29.576 64.9479 30.68 66.7719 30.68ZM85.7986 35.48C83.2706 35.48 81.3346 34.76 79.9906 33.32C78.6786 31.88 78.0226 29.848 78.0226 27.224V9.176C78.0226 6.552 78.6786 4.52 79.9906 3.08C81.3346 1.64 83.2706 0.919998 85.7986 0.919998C88.3266 0.919998 90.2466 1.64 91.5586 3.08C92.9026 4.52 93.5746 6.552 93.5746 9.176V12.728H88.5826V8.84C88.5826 6.76 87.7026 5.72 85.9426 5.72C84.1826 5.72 83.3026 6.76 83.3026 8.84V27.608C83.3026 29.656 84.1826 30.68 85.9426 30.68C87.7026 30.68 88.5826 29.656 88.5826 27.608V22.472H93.5746V27.224C93.5746 29.848 92.9026 31.88 91.5586 33.32C90.2466 34.76 88.3266 35.48 85.7986 35.48ZM96.7336 1.4H111.134V6.2H102.014V15.08H109.262V19.88H102.014V30.2H111.134V35H96.7336V1.4ZM121.859 1.4H127.139V30.2H135.827V35H121.859V1.4ZM142.626 1.4H149.778L155.25 35H149.97L149.01 28.328V28.424H143.01L142.05 35H137.154L142.626 1.4ZM148.386 23.864L146.034 7.256H145.938L143.634 23.864H148.386Z" fill="white"/>
</svg>
