<svg class="section__showcasePromo__product__letters2" width="235" height="28" viewBox="0 0 235 28" fill="none" xmlns="http://www.w3.org/2000/svg">
<path fill-rule="evenodd" clip-rule="evenodd" d="M235 0H0V28H235V0ZM6.3642 6.24754H3.57452V24H10.9545V21.4639H6.3642V6.24754ZM18.3257 6.24754H14.547L11.6559 24H14.2426L14.7499 20.5256H17.9199V20.4749L18.4272 24H21.2168L18.3257 6.24754ZM16.3476 9.34154L17.5903 18.1163H15.0795L16.2969 9.34154H16.3476ZM29.4216 6.24754H26.6319V24H29.4216V16.0114H32.4142V24H35.2038V6.24754H32.4142V13.4753H29.4216V6.24754ZM40.0711 6.24754H37.2814V24H40.0711V6.24754ZM42.7183 23.1124C43.4115 23.8732 44.4344 24.2536 45.7869 24.2536C47.1564 24.2536 48.1962 23.8647 48.9063 23.087C49.6333 22.3093 49.9968 21.1934 49.9968 19.7394C49.9968 18.6235 49.777 17.6514 49.3374 16.8229C48.8979 15.9945 48.0948 15.073 46.9282 14.0586C46.0152 13.264 45.3812 12.5877 45.0261 12.0298C44.688 11.4718 44.5189 10.8716 44.5189 10.2292C44.5189 9.09639 44.9839 8.53 45.9137 8.53C46.3702 8.53 46.7168 8.67371 46.9535 8.96113C47.1902 9.23164 47.3086 9.67123 47.3086 10.2799V11.1929H49.9461V10.4574C49.9461 9.0203 49.5995 7.92134 48.9063 7.16052C48.23 6.38279 47.224 5.99393 45.8884 5.99393C44.5358 5.99393 43.5045 6.38279 42.7944 7.16052C42.0843 7.92134 41.7292 9.0034 41.7292 10.4067C41.7292 11.438 41.9575 12.3679 42.414 13.1964C42.8705 14.0079 43.6736 14.9209 44.8232 15.9353C45.7362 16.7299 46.3618 17.4147 46.6999 17.9895C47.0381 18.5475 47.2071 19.1984 47.2071 19.9423C47.2071 20.5679 47.0803 21.0243 46.8267 21.3118C46.59 21.5823 46.235 21.7175 45.7616 21.7175C44.7979 21.7175 44.316 21.1427 44.316 19.993V18.7757H41.6785V19.7901C41.6785 21.2272 42.0251 22.3347 42.7183 23.1124ZM50.8609 8.7836H53.7773V24H56.567V8.7836H59.4835V6.24754H50.8609V8.7836ZM61.6227 23.087C62.3497 23.8647 63.3979 24.2536 64.7674 24.2536C66.1369 24.2536 67.1851 23.8647 67.9121 23.087C68.6391 22.3093 69.0026 21.2103 69.0026 19.7901V10.4574C69.0026 9.03721 68.6391 7.93825 67.9121 7.16052C67.1851 6.38279 66.1369 5.99393 64.7674 5.99393C63.3979 5.99393 62.3497 6.38279 61.6227 7.16052C60.8957 7.93825 60.5322 9.03721 60.5322 10.4574V19.7901C60.5322 21.2103 60.8957 22.3093 61.6227 23.087ZM66.213 19.9677C66.213 21.1342 65.7311 21.7175 64.7674 21.7175C63.8037 21.7175 63.3219 21.1342 63.3219 19.9677V10.2799C63.3219 9.11329 63.8037 8.53 64.7674 8.53C65.7311 8.53 66.213 9.11329 66.213 10.2799V19.9677ZM75.023 6.24754H70.8892V24H73.6789V16.3918H74.6426C75.2851 16.3918 75.7331 16.5524 75.9867 16.8737C76.2572 17.1949 76.3925 17.7613 76.3925 18.5728V21.819C76.3925 22.4784 76.4094 22.9349 76.4432 23.1885C76.477 23.4421 76.5447 23.7126 76.6461 24H79.4865C79.3512 23.6957 79.2667 23.3913 79.2329 23.087C79.1991 22.7658 79.1822 22.3516 79.1822 21.8443V18.725C79.1822 17.6767 79.0385 16.8398 78.751 16.2143C78.4805 15.5887 78.0071 15.1745 77.3308 14.9716V14.9209C78.5482 14.4306 79.1568 13.264 79.1568 11.4211V10.3306C79.1568 8.94422 78.8271 7.92134 78.1678 7.26196C77.5084 6.58568 76.4601 6.24754 75.023 6.24754ZM75.936 13.4246C75.6655 13.712 75.2513 13.8557 74.6933 13.8557H73.6789V8.7836H74.947C75.4373 8.7836 75.7923 8.92731 76.0121 9.21474C76.2488 9.50216 76.3671 9.9671 76.3671 10.6096V11.979C76.3671 12.6553 76.2234 13.1372 75.936 13.4246ZM83.9074 6.24754H81.1177V24H83.9074V6.24754ZM91.9311 6.24754H88.1523L85.2612 24H87.848L88.3552 20.5256H91.5253V20.4749L92.0325 24H94.8222L91.9311 6.24754ZM89.9529 9.34154L91.1956 18.1163H88.6849L89.9022 9.34154H89.9529ZM99.5018 8.7836H102.418V24H105.208V8.7836H108.124V6.24754H99.5018V8.7836ZM113.609 6.24754H109.475V24H112.265V16.3918H113.228C113.871 16.3918 114.319 16.5524 114.573 16.8737C114.843 17.1949 114.978 17.7613 114.978 18.5728V21.819C114.978 22.4784 114.995 22.9349 115.029 23.1885C115.063 23.4421 115.131 23.7126 115.232 24H118.072C117.937 23.6957 117.853 23.3913 117.819 23.087C117.785 22.7658 117.768 22.3516 117.768 21.8443V18.725C117.768 17.6767 117.624 16.8398 117.337 16.2143C117.066 15.5887 116.593 15.1745 115.917 14.9716V14.9209C117.134 14.4306 117.743 13.264 117.743 11.4211V10.3306C117.743 8.94422 117.413 7.92134 116.754 7.26196C116.094 6.58568 115.046 6.24754 113.609 6.24754ZM114.522 13.4246C114.251 13.712 113.837 13.8557 113.279 13.8557H112.265V8.7836H113.533C114.023 8.7836 114.378 8.92731 114.598 9.21474C114.835 9.50216 114.953 9.9671 114.953 10.6096V11.979C114.953 12.6553 114.809 13.1372 114.522 13.4246ZM125.638 6.24754H121.859L118.968 24H121.555L122.062 20.5256H125.232V20.4749L125.739 24H128.529L125.638 6.24754ZM123.66 9.34154L124.902 18.1163H122.392L123.609 9.34154H123.66ZM130.366 23.1124C131.059 23.8732 132.082 24.2536 133.435 24.2536C134.804 24.2536 135.844 23.8647 136.554 23.087C137.281 22.3093 137.645 21.1934 137.645 19.7394C137.645 18.6235 137.425 17.6514 136.985 16.8229C136.546 15.9945 135.743 15.073 134.576 14.0586C133.663 13.264 133.029 12.5877 132.674 12.0298C132.336 11.4718 132.167 10.8716 132.167 10.2292C132.167 9.09639 132.632 8.53 133.562 8.53C134.018 8.53 134.365 8.67371 134.601 8.96113C134.838 9.23164 134.956 9.67123 134.956 10.2799V11.1929H137.594V10.4574C137.594 9.0203 137.247 7.92134 136.554 7.16052C135.878 6.38279 134.872 5.99393 133.536 5.99393C132.184 5.99393 131.152 6.38279 130.442 7.16052C129.732 7.92134 129.377 9.0034 129.377 10.4067C129.377 11.438 129.605 12.3679 130.062 13.1964C130.518 14.0079 131.321 14.9209 132.471 15.9353C133.384 16.7299 134.01 17.4147 134.348 17.9895C134.686 18.5475 134.855 19.1984 134.855 19.9423C134.855 20.5679 134.728 21.0243 134.475 21.3118C134.238 21.5823 133.883 21.7175 133.409 21.7175C132.446 21.7175 131.964 21.1427 131.964 19.993V18.7757H129.326V19.7901C129.326 21.2272 129.673 22.3347 130.366 23.1124ZM144.168 23.1124C144.878 23.8732 145.901 24.2536 147.237 24.2536C148.572 24.2536 149.587 23.8732 150.28 23.1124C150.99 22.3516 151.345 21.278 151.345 19.8916V17.3809H148.708V20.0945C148.708 21.1765 148.243 21.7175 147.313 21.7175C146.383 21.7175 145.918 21.1765 145.918 20.0945V10.1784C145.918 9.07948 146.383 8.53 147.313 8.53C148.243 8.53 148.708 9.07948 148.708 10.1784V12.2327H151.345V10.356C151.345 8.96958 150.99 7.89598 150.28 7.13516C149.587 6.37434 148.572 5.99393 147.237 5.99393C145.901 5.99393 144.878 6.37434 144.168 7.13516C143.475 7.89598 143.128 8.96958 143.128 10.356V19.8916C143.128 21.278 143.475 22.3516 144.168 23.1124ZM158.949 6.24754H155.17L152.279 24H154.866L155.373 20.5256H158.543V20.4749L159.05 24H161.84L158.949 6.24754ZM156.97 9.34154L158.213 18.1163H155.702L156.92 9.34154H156.97ZM167.454 6.24754H163.193V24H167.454C168.84 24 169.88 23.628 170.573 22.8841C171.266 22.1402 171.613 21.0497 171.613 19.6126V10.6349C171.613 9.19783 171.266 8.10732 170.573 7.36341C169.88 6.61949 168.84 6.24754 167.454 6.24754ZM168.443 21.0582C168.206 21.3287 167.859 21.4639 167.403 21.4639H165.983V8.7836H167.403C167.859 8.7836 168.206 8.91886 168.443 9.18937C168.696 9.45989 168.823 9.89947 168.823 10.5081V19.7394C168.823 20.3481 168.696 20.7876 168.443 21.0582ZM179.381 6.24754H175.602L172.711 24H175.298L175.805 20.5256H178.975V20.4749L179.482 24H182.272L179.381 6.24754ZM177.403 9.34154L178.645 18.1163H176.135L177.352 9.34154H177.403ZM188.549 23.1124C189.259 23.8732 190.282 24.2536 191.618 24.2536C192.954 24.2536 193.968 23.8732 194.661 23.1124C195.371 22.3516 195.726 21.278 195.726 19.8916V17.3809H193.089V20.0945C193.089 21.1765 192.624 21.7175 191.694 21.7175C190.764 21.7175 190.299 21.1765 190.299 20.0945V10.1784C190.299 9.07948 190.764 8.53 191.694 8.53C192.624 8.53 193.089 9.07948 193.089 10.1784V12.2327H195.726V10.356C195.726 8.96958 195.371 7.89598 194.661 7.13516C193.968 6.37434 192.954 5.99393 191.618 5.99393C190.282 5.99393 189.259 6.37434 188.549 7.13516C187.856 7.89598 187.509 8.96958 187.509 10.356V19.8916C187.509 21.278 187.856 22.3516 188.549 23.1124ZM203.33 6.24754H199.551L196.66 24H199.247L199.754 20.5256H202.924V20.4749L203.431 24H206.221L203.33 6.24754ZM201.352 9.34154L202.594 18.1163H200.084L201.301 9.34154H201.352ZM214.954 6.24754H207.574V24H210.364V16.265H213.965V13.7289H210.364V8.7836H214.954V6.24754ZM223.9 6.24754H216.292V24H223.9V21.4639H219.082V16.0114H222.911V13.4753H219.082V8.7836H223.9V6.24754ZM223.393 2.13911H220.35L218.574 5.05559H220.679L223.393 2.13911Z" fill="#D70021"/>
</svg>
